<?xml version="1.0" encoding="UTF-8"?>
<svg width="25px" height="25px" viewBox="0 0 25 25" version="1.1" xmlns="http://www.w3.org/2000/svg" xmlns:xlink="http://www.w3.org/1999/xlink">
    <!-- Generator: Sketch 53.1 (72631) - https://sketchapp.com -->
    <title>ico/ticket/white</title>
    <desc>Created with Sketch.</desc>
    <g id="SYMBOLS" stroke="none" stroke-width="1" fill="none" fill-rule="evenodd">
        <g id="navigation/menu/320/desplegado" transform="translate(-263.000000, -3.000000)" fill="#0779BF">
            <g id="ico/ticket/red" transform="translate(263.000000, 3.000000)">
                <g id="ticket-(1)">
                    <path d="M22.1408959,6.55580922 L21.8682514,6.82845375 C21.3576695,7.3390356 20.9863022,7.48673413 20.2127167,7.48673413 C18.6485778,7.48673413 17.5132659,6.35142222 17.5132659,4.78728327 C17.5132659,4.01369778 17.6609644,3.64233047 18.1715462,3.13174863 L18.4441908,2.85910409 L15.5850867,0 L0,15.5850867 L2.85910409,18.4441908 L3.13174863,18.1715462 C3.64233047,17.6609644 4.01369778,17.5132659 4.78728327,17.5132659 C6.35142222,17.5132659 7.48673413,18.6485778 7.48673413,20.2127167 C7.48673413,20.9863022 7.3390356,21.3576695 6.82845375,21.8682514 L6.55580922,22.1408959 L9.41491331,25 L25,9.41491331 L22.1408959,6.55580922 Z M7.63558956,22.1297125 C8.09526748,21.5817239 8.2580058,21.0537885 8.2580058,20.2127167 C8.2580058,18.2340193 6.76598075,16.7419942 4.78728327,16.7419942 C3.94621151,16.7419942 3.41827605,16.9047325 2.86990189,17.3644104 L1.09057815,15.5850867 L10.186185,6.48947985 L11.4560838,7.75937866 L12.0013729,7.21408959 L10.7314741,5.94419078 L15.5850867,1.09057815 L17.3644104,2.87028753 C16.9047325,3.41827605 16.7419942,3.94621151 16.7419942,4.78728327 C16.7419942,6.76598075 18.2340193,8.2580058 20.2127167,8.2580058 C21.0537885,8.2580058 21.5817239,8.09526748 22.1300981,7.63558956 L23.9094219,9.41491331 L19.0558092,14.2685259 L17.7859104,12.9986271 L17.2406213,13.5439162 L18.5105201,14.813815 L9.41491331,23.9094219 L7.63558956,22.1297125 Z" id="Shape" fill-rule="nonzero"></path>
                    <polygon id="Shape" fill-rule="nonzero" points="14.0392193 10.4166667 12.5 8.87744736 13.044114 8.33333333 14.5833333 9.87255264"></polygon>
                    <polygon id="Shape" fill-rule="nonzero" points="16.1225526 12.5 14.5833333 10.9607807 15.1274474 10.4166667 16.6666667 11.955886"></polygon>
                </g>
            </g>
        </g>
    </g>
</svg>