<?xml version="1.0" encoding="UTF-8"?>
<svg width="28px" height="37px" viewBox="0 0 28 37" version="1.1" xmlns="http://www.w3.org/2000/svg" xmlns:xlink="http://www.w3.org/1999/xlink">
    <!-- Generator: Sketch 54 (76480) - https://sketchapp.com -->
    <title>Page 1 Copy</title>
    <desc>Created with Sketch.</desc>
    <g id="Page-1" stroke="none" stroke-width="1" fill="none" fill-rule="evenodd">
        <g id="home_375_experience_fighters" transform="translate(-174.000000, -78.000000)">
            <g id="Page-1-Copy" transform="translate(174.000000, 78.000000)">
                <g id="Group-44">
                    <path d="M0.891897009,16.5071804 C0.913101098,13.1404261 1.45539568,10.4283896 2.82093904,7.90882678 C4.46054525,4.88197288 6.88364256,2.66084671 10.3049224,1.66981184 C14.3617948,0.495005534 18.1997349,1.04427227 21.6411587,3.50855008 C23.9338508,5.15071942 25.4133661,7.38259546 26.3452859,9.96768124 C26.9315789,11.5950055 27.2241954,13.2730077 27.3164332,14.9929856 C27.4494888,17.46443 27.1065127,19.8846846 26.4762211,22.2660349 C25.7478607,25.0174875 24.660621,27.6337991 23.0528209,30.0264112 C21.8537296,31.8103763 20.4277546,33.3890703 18.5236274,34.5091035 C16.6862931,35.5902324 14.6989398,35.994632 12.5785309,35.5984228 C10.8594093,35.2774626 9.38625521,34.4584256 8.08697463,33.3383924 C6.11181371,31.6353071 4.72506626,29.5283343 3.61185157,27.2360542 C2.37459296,24.688337 1.56353654,22.0146929 1.15482772,19.2330382 C0.995797047,18.1534449 0.943316925,17.0590066 0.891897009,16.5071804" id="Fill-16" fill="#FFFFFF"></path>
                    <path d="M14.1076638,32.5532429 C14.1076638,32.5614333 14.1076638,32.5696237 14.1076638,32.5773022 C15.094184,32.5773022 16.0812344,32.5885639 17.0677546,32.5752546 C19.0673003,32.5476121 20.5939947,31.2719618 20.7848315,29.4844134 C20.9528739,27.9159574 20.0686634,26.4898091 18.5467399,25.8914001 C18.3384097,25.8094964 18.2201969,25.7526757 18.3124347,25.484953 C18.4173949,25.178326 18.4476108,24.8440564 18.4810072,24.5190011 C18.5011511,24.3214084 18.5122832,24.2067432 18.7810451,24.2441118 C19.4717683,24.3398367 20.1582507,24.2901826 20.8277698,24.0905423 C22.3247785,23.644679 23.4379932,22.7201909 24.2331465,21.4465883 C25.6946384,19.1056779 25.8573798,16.531342 25.6326164,13.8914831 C25.6039909,13.5572136 25.448671,13.4230963 25.1231882,13.4241201 C25.0468535,13.424632 24.9699886,13.4138821 24.8936539,13.4154178 C23.908724,13.429751 22.9211435,13.4102988 21.9388641,13.4691671 C20.4784324,13.5561898 19.0487467,13.8203293 17.6847936,14.3573105 C15.4758576,15.2260017 14.4013404,16.7146015 14.3917986,18.8957997 C14.3912685,19.0488572 14.2772965,19.3370559 14.253972,19.3334726 C13.9735479,19.2904732 14.0949413,19.0596071 14.0875199,18.9014305 C14.0329193,17.7445407 13.7933131,16.6557333 12.937198,15.7732208 C11.9803635,14.7857692 10.7674896,14.2242169 9.43587278,13.9401134 C8.29562287,13.6969618 7.12992806,13.5341782 5.96688376,13.4353818 C5.05510791,13.3575733 4.12954941,13.43487 3.20982204,13.4389651 C2.94689133,13.4405008 2.8694964,13.5684754 2.83822037,13.8085556 C2.66858766,15.1200387 2.69615297,16.4284505 2.88804998,17.732767 C3.08100719,19.0437382 3.45737978,20.3076148 4.20747444,21.4256004 C5.49403256,23.3426591 7.22428626,24.5005728 9.71470655,24.2369452 C9.92144642,24.2154455 9.95166225,24.3070753 9.96968573,24.4678113 C10.0041424,24.7718788 10.0248164,25.0836248 10.1144036,25.374383 C10.2092919,25.6799862 10.1435593,25.8100083 9.82655812,25.9374709 C8.22882999,26.5793913 7.32712609,28.1882872 7.75438849,29.9149198 C8.13288148,31.4475429 9.38392276,32.4570061 11.0176978,32.543005 C12.0445059,32.5972662 13.0776751,32.5532429 14.1076638,32.5532429 M0.290549034,16.420772 C0.312813328,12.9009602 0.879492616,10.0650443 2.30705793,7.43081627 C4.02140856,4.26626176 6.55423703,1.94480354 10.1313669,0.908721638 C14.3727149,-0.319833979 18.3855888,0.254515772 21.9828626,2.83089928 C24.380515,4.54780576 25.9268232,6.88103763 26.9011511,9.58334809 C27.5144794,11.2848976 27.8203484,13.0391727 27.916827,14.8374709 C28.0557137,17.421021 27.6973646,19.9518456 27.0384476,22.4412064 C26.2766906,25.3175623 25.1401515,28.0531461 23.4591973,30.5547925 C22.2055055,32.4196375 20.7143279,34.0705091 18.723794,35.2412203 C16.8027035,36.3714914 14.7252329,36.7948312 12.5083453,36.3807056 C10.7112988,36.0443885 9.17082166,35.1879828 7.81269973,34.0172717 C5.74742143,32.2368899 4.29812192,30.034192 3.13401742,27.6374848 C1.84003786,24.9740786 0.992404392,22.1786027 0.565141992,19.2705091 C0.399219992,18.1417737 0.34408936,16.9976812 0.290549034,16.420772" id="Fill-18" fill="#0779BF"></path>
                    <path d="M23.6189701,16.7061552 C23.5898145,18.104661 23.3984476,19.4187037 22.6091253,20.5725221 C21.9146914,21.5860805 20.9769406,22.242334 19.6553957,22.2418221 C18.1769406,22.2413102 16.9513442,21.307096 16.6152594,19.9075664 C16.4286634,19.1289693 16.431844,18.3457651 16.7567967,17.601977 C17.1522529,16.6948935 17.9606588,16.2306018 18.8724347,15.9219272 C20.2713745,15.4484214 21.725975,15.410541 23.187997,15.4422786 C23.4519879,15.4479095 23.561719,15.5625747 23.5712609,15.8047025 C23.5839833,16.1210556 23.6046573,16.4379206 23.6189701,16.7061552" id="Fill-20" fill="#0779BF"></path>
                    <path d="M4.68180992,16.7198741 C4.68180992,16.4552227 4.67438849,16.1905714 4.68340023,15.9264319 C4.69771299,15.4872233 4.74383188,15.4268193 5.20820144,15.443712 C6.15867474,15.478521 7.11444907,15.4933661 8.05591064,15.6100789 C8.66499811,15.6853279 9.2799167,15.8660279 9.84341537,16.1061082 C11.3017266,16.7285764 11.8880197,17.761075 11.7533737,19.3121265 C11.6261492,20.7730838 10.7604922,21.8342488 9.29051874,22.1685183 C7.9276259,22.4782167 6.81017039,21.9647828 5.94451344,20.9548077 C5.07196516,19.9361303 4.7729875,18.7050152 4.6765089,17.4181032 C4.65954563,17.1862133 4.67438849,16.9527878 4.67438849,16.7198741 L4.68180992,16.7198741 Z" id="Fill-22" fill="#0779BF"></path>
                    <path d="M14.2360545,30.5214167 C13.305195,30.5214167 12.3743355,30.5224405 11.443476,30.5209048 C10.5534343,30.5188572 9.90034835,29.9409242 9.87914426,29.1408273 C9.85581977,28.2767432 10.4521848,27.6276563 11.3629004,27.6169065 C13.2786899,27.5938711 15.1955396,27.5995019 17.1118591,27.614347 C17.8444604,27.6204898 18.3597198,28.0136276 18.5653995,28.6437742 C18.7620674,29.2426951 18.5722908,29.8835916 18.0109125,30.238337 C17.7522226,30.4021444 17.4055358,30.4983813 17.0938357,30.5091312 C16.1423022,30.5434283 15.1886482,30.5214167 14.2360545,30.5214167" id="Fill-24" fill="#0779BF"></path>
                    <path d="M14.2309125,23.08886 C15.0568118,23.1026812 15.8233396,23.264953 16.4790761,23.7722441 C16.8204619,24.0368954 16.9885044,24.3839624 16.8904354,24.8073022 C16.8013783,25.1912258 16.4658236,25.3217598 16.120727,25.4123658 C15.9002045,25.4702103 15.6712003,25.527031 15.4453768,25.5311262 C14.6268989,25.5449474 13.8073608,25.552114 12.988883,25.5295905 C12.7111094,25.521912 12.4269746,25.4441035 12.1613934,25.3540094 C11.464309,25.1180243 11.2946763,24.5011871 11.7749489,23.9524322 C12.1359485,23.5398423 12.6305339,23.3325235 13.1616963,23.2224654 C13.5120939,23.1502878 13.8741537,23.1313475 14.2309125,23.08886" id="Fill-26" fill="#0779BF"></path>
                </g>
            </g>
        </g>
    </g>
</svg>