<?xml version="1.0" encoding="UTF-8" standalone="no"?>
<svg width="90px" height="38px" viewBox="0 0 90 38" version="1.1" xmlns="http://www.w3.org/2000/svg" xmlns:xlink="http://www.w3.org/1999/xlink">
    <!-- Generator: Sketch 48.2 (47327) - http://www.bohemiancoding.com/sketch -->
    <title>logoFooter</title>
    <desc>Created with Sketch.</desc>
    <defs>
        <polygon id="path-1" points="0 0.0997661565 27.1723736 0.0997661565 27.1723736 37.2810374 0 37.2810374"></polygon>
        <polygon id="path-3" points="0 37.7065663 89.4802083 37.7065663 89.4802083 0.525295068 0 0.525295068"></polygon>
    </defs>
    <g id="navigation/footer/no_newsletter" stroke="none" stroke-width="1" fill="none" fill-rule="evenodd" transform="translate(-750.000000, -336.000000)">
        <g id="Footer" transform="translate(0.000000, -3.000000)">
            <g id="logo/white" transform="translate(750.000000, 339.000000)">
                <g id="Page-1">
                    <path d="M0.591145833,17.1618267 C0.611979167,13.7083425 1.14479167,10.926442 2.48645833,8.34144834 C4.09739583,5.23662054 6.47760417,2.95880166 9.83958333,1.94223703 C13.8255208,0.737166879 17.5963542,1.30058312 20.9770833,3.82834247 C23.2302083,5.51281526 24.6833333,7.80218601 25.5989583,10.4538654 C26.1755208,12.1231108 26.4625,13.8443395 26.5536458,15.6086252 C26.6838542,18.1432107 26.3473958,20.6263378 25.728125,23.0690334 C25.0125,25.8908403 23.9442708,28.57455 22.3640625,31.0293225 C21.1864583,32.8592438 19.7848958,34.4786061 17.9145833,35.6274921 C16.1088542,36.7364717 14.15625,37.1512889 12.0734375,36.7448731 C10.384375,36.4151197 8.93645833,35.5755087 7.66041667,34.4266227 C5.71927083,32.6796648 4.35729167,30.5184148 3.26302083,28.167084 C2.04739583,25.5537358 1.25104167,22.8112166 0.848958333,19.9579045 C0.693229167,18.8499751 0.641666667,17.7278684 0.591145833,17.1618267" id="Fill-1" fill="#FFFFFF"></path>
                    <g id="Group-5" transform="translate(0.000000, 0.425529)">
                        <mask id="mask-2" fill="white">
                            <use xlink:href="#path-1"></use>
                        </mask>
                        <g id="Clip-4"></g>
                        <path d="M13.5758854,33.1954558 L13.5758854,33.2206599 C14.5451563,33.2206599 15.5149479,33.2322117 16.4836979,33.2180344 C18.4488021,33.1896798 19.9482813,31.8811679 20.1363021,30.047571 C20.3014063,28.4392355 19.4321354,26.9763486 17.9368229,26.3619991 C17.7326563,26.2785106 17.6165104,26.2197011 17.7066146,25.9450816 C17.8097396,25.6305557 17.8399479,25.2876752 17.8722396,24.9542462 C17.8920313,24.7520884 17.9034896,24.6339443 18.1675521,24.6722755 C18.8456771,24.7704664 19.5201563,24.7195332 20.1784896,24.5152751 C21.6493229,24.057926 22.7430729,23.1090974 23.5243229,21.8026858 C24.9597396,19.401997 25.1196354,16.7608193 24.8993229,14.0529558 C24.8711979,13.7100753 24.7180729,13.572503 24.3988021,13.5735531 C24.3238021,13.5740782 24.2482813,13.5630514 24.1732813,13.5646267 C23.2050521,13.5793291 22.2352604,13.5599009 21.2696354,13.6197606 C19.8352604,13.7090251 18.4305729,13.980494 17.0904688,14.5307832 C14.9196354,15.4218525 13.8644271,16.9487997 13.8550521,19.1867122 C13.8540104,19.3431875 13.7425521,19.6393355 13.7196354,19.6351348 C13.4441146,19.5910276 13.5633854,19.3547394 13.5555729,19.191963 C13.5024479,18.0052708 13.2670313,16.8889401 12.4258854,15.9831684 C11.4857813,14.9702793 10.2941146,14.3947861 8.98526042,14.1033639 C7.86546875,13.8534235 6.72015625,13.6864464 5.57744792,13.585105 C4.68161458,13.5058172 3.77223958,13.585105 2.86859375,13.5893057 C2.60973958,13.5903559 2.53369792,13.7216271 2.50348958,13.9684171 C2.33630208,15.3131599 2.36390625,16.6552772 2.55244792,17.9931939 C2.74203125,19.3379366 3.11130208,20.6343716 3.84880208,21.7811573 C5.11234375,23.7476008 6.81234375,24.9353431 9.25973958,24.6649243 C9.46286458,24.6428707 9.49203125,24.736861 9.51026042,24.9017377 C9.54411458,25.2136382 9.56442708,25.5339401 9.65244792,25.8316633 C9.74567708,26.1456641 9.68109375,26.2785106 9.36911458,26.4092568 C7.79984375,27.0677134 6.91338542,28.7180557 7.33317708,30.4891675 C7.70557292,32.0612721 8.93421875,33.0967398 10.5394271,33.1849541 C11.5488021,33.2406131 12.5639063,33.1954558 13.5758854,33.1954558 M-0.00015625,16.6474009 C0.02171875,13.0369162 0.579010417,10.1279452 1.98109375,7.42585757 C3.66598958,4.17978189 6.15401042,1.79852126 9.66911458,0.73574915 C13.8363021,-0.524454932 17.7790104,0.0646904762 21.3133854,2.70744345 C23.6685938,4.46857866 25.1883854,6.86191624 26.1451563,9.63384014 C26.7482813,11.3792228 27.0482812,13.1792143 27.1430729,15.0233129 C27.2800521,17.6734171 26.9274479,20.2694375 26.2800521,22.8234511 C25.5321354,25.7733788 24.4154688,28.5794332 22.7633854,31.1455238 C21.5321354,33.0589337 20.0670312,34.7518078 18.1113021,35.9532024 C16.2238021,37.1125901 14.1826563,37.5463104 12.0045313,37.1215166 C10.2383854,36.7765357 8.72536458,35.8985935 7.39098958,34.697199 C5.36182292,32.8709532 3.93734375,30.6115123 2.79359375,28.1530642 C1.52276042,25.4210468 0.689947917,22.5535574 0.269635417,19.5705493 C0.106614583,18.4127368 0.0524479167,17.2391718 -0.00015625,16.6474009" id="Fill-3" fill="#0779BF" mask="url(#mask-2)"></path>
                    </g>
                    <path d="M22.9208854,17.3659273 C22.8922396,18.7999345 22.7042187,20.1483529 21.9281771,21.3313695 C21.2464062,22.3715629 20.3250521,23.0447219 19.0266146,23.0436718 C17.5740104,23.0436718 16.3698438,22.0853916 16.0396354,20.649284 C15.8557813,19.8511548 15.8594271,19.0472496 16.1781771,18.2848261 C16.5672396,17.3543754 17.3609896,16.8781233 18.2573438,16.561497 C19.6313021,16.0757934 21.0604687,16.0369371 22.4969271,16.0694923 C22.7563021,16.0752683 22.8646354,16.1923622 22.8740104,16.4407275 C22.8859896,16.7657551 22.9063021,17.0902577 22.9208854,17.3659273" id="Fill-6" fill="#0779BF"></path>
                    <path d="M4.31458333,17.379737 C4.31458333,17.1087932 4.3078125,16.8373242 4.31614583,16.5663803 C4.33072917,16.1153323 4.37552083,16.0533722 4.83177083,16.0707 C5.765625,16.1069309 6.70520833,16.1216333 7.6296875,16.2413527 C8.228125,16.3185402 8.83229167,16.5038952 9.3859375,16.7506852 C10.81875,17.3886635 11.3947917,18.4482851 11.2625,20.0387676 C11.1375,21.5373603 10.2869792,22.6263867 8.84322917,22.9687421 C7.50416667,23.2869437 6.40572917,22.7602834 5.55520833,21.7237655 C4.69791667,20.6788463 4.40416667,19.4165419 4.30989583,18.095953 C4.29270833,17.8586146 4.30729167,17.6186507 4.30729167,17.379737 L4.31458333,17.379737 Z" id="Fill-8" fill="#0779BF"></path>
                    <path d="M13.7017708,31.5368172 C12.7871875,31.5368172 11.8726042,31.5383924 10.9580208,31.5362921 C10.0835417,31.5341918 9.44239583,30.9413707 9.42104167,30.1206628 C9.398125,29.2343193 9.9840625,28.5685115 10.8788542,28.5574847 C12.7611458,28.5338559 14.645,28.5396318 16.5272917,28.5548593 C17.2476042,28.5611603 17.7533333,28.9644256 17.9559375,29.6108053 C18.1486458,30.2256798 17.9621875,30.8830863 17.410625,31.2469702 C17.1564583,31.4144724 16.8158333,31.5131884 16.5095833,31.5247402 C15.5746875,31.5593958 14.6377083,31.5373423 13.7017708,31.5368172" id="Fill-10" fill="#0779BF"></path>
                    <path d="M13.6969271,23.9127925 C14.5078646,23.9274949 15.2615104,24.0934218 15.9052604,24.613781 C16.2411979,24.8857751 16.4063021,25.2412577 16.3099479,25.675503 C16.2224479,26.0693168 15.8927604,26.2037385 15.5531771,26.2966786 C15.3370313,26.3554881 15.1120313,26.4137725 14.8901563,26.4179732 C14.0854688,26.4326756 13.2802604,26.4395017 12.4766146,26.416398 C12.2036979,26.4085217 11.9240104,26.3287088 11.6635938,26.2362938 C10.9781771,25.9942296 10.8120313,25.3615021 11.2839063,24.798611 C11.6385938,24.3753924 12.1240104,24.162733 12.6464063,24.0498397 C12.9906771,23.9758027 13.3464063,23.9563746 13.6969271,23.9127925" id="Fill-12" fill="#0779BF"></path>
                    <polygon id="Fill-14" fill="#FFFFFF" points="32.7785417 4.57543346 37.3165625 4.57543346 37.3165625 6.63166645 34.7629167 6.63166645 34.7629167 10.2059203 36.5998958 10.2059203 36.5998958 12.3918493 34.7629167 12.3918493 34.7629167 16.1330801 37.3165625 16.1330801 37.3165625 18.1893131 32.7785417 18.1893131"></polygon>
                    <polygon id="Fill-16" fill="#FFFFFF" points="40.1577083 18.1891556 38.2097917 18.1891556 40.39625 11.0395978 38.2467708 4.57527594 40.1941667 4.57527594 41.2785417 8.02035884 41.33375 8.18733588 41.4071875 8.18733588 41.461875 8.02035884 42.5457292 4.57527594 44.4936458 4.57527594 42.3436458 11.0395978 44.530625 18.1891556 42.5827083 18.1891556 41.4436458 14.1328737 41.4071875 13.9664218 41.33375 13.9664218 41.2967708 14.1328737"></polygon>
                    <path d="M47.4326042,10.7062213 C48.0388542,10.7062213 48.4247917,10.5949033 48.645625,10.2798523 C48.8654167,9.98422938 48.920625,9.48382334 48.920625,8.72455038 C48.920625,7.96475234 48.8654167,7.42759035 48.645625,7.09416135 C48.4247917,6.76125744 48.0388542,6.61265838 47.4326042,6.61265838 L47.4326042,10.7062213 Z M45.4482292,4.57532844 L47.4326042,4.57532844 C48.2961458,4.57532844 49.1596875,4.79743941 49.8211458,5.42754145 C50.4820833,6.05711841 50.92375,7.09416135 50.92375,8.64998831 C50.92375,10.2058153 50.4820833,11.2250053 49.8211458,11.8545823 C49.1596875,12.4846843 48.2961458,12.7435512 47.4326042,12.7435512 L47.4326042,18.1892081 L45.4482292,18.1892081 L45.4482292,4.57532844 Z" id="Fill-18" fill="#FFFFFF"></path>
                    <polygon id="Fill-20" fill="#FFFFFF" points="51.7821354 4.57543346 56.3201563 4.57543346 56.3201563 6.63166645 53.7665104 6.63166645 53.7665104 10.2059203 55.6040104 10.2059203 55.6040104 12.3918493 53.7665104 12.3918493 53.7665104 16.1330801 56.3201563 16.1330801 56.3201563 18.1893131 51.7821354 18.1893131"></polygon>
                    <path d="M59.2225521,10.5949033 C59.4980729,10.5949033 59.8652604,10.5581473 60.1595313,10.2987553 C60.4532813,10.0393633 60.6923438,9.53895727 60.6923438,8.57595132 C60.6923438,7.61294537 60.4532813,7.09416135 60.1595313,6.83476935 C59.8652604,6.57537734 59.4980729,6.55752445 59.2225521,6.55752445 L59.2225521,10.5949033 Z M60.7845313,18.1892081 L59.7548438,12.4474033 L59.2225521,12.4474033 L59.2225521,18.1892081 L57.2381771,18.1892081 L57.2381771,4.57532844 L59.2225521,4.57532844 C61.5923438,4.57532844 62.6032813,5.92742241 62.6032813,8.50191433 C62.6032813,9.85400829 62.2538021,11.0764063 61.5006771,11.5951903 L62.7683854,18.1892081 L60.7845313,18.1892081 Z" id="Fill-22" fill="#FFFFFF"></path>
                    <mask id="mask-4" fill="white">
                        <use xlink:href="#path-3"></use>
                    </mask>
                    <g id="Clip-25"></g>
                    <polygon id="Fill-24" fill="#FFFFFF" mask="url(#mask-4)" points="63.6135417 18.1891556 65.5979167 18.1891556 65.5979167 4.57527594 63.6135417 4.57527594"></polygon>
                    <polygon id="Fill-26" fill="#FFFFFF" mask="url(#mask-4)" points="66.5714583 4.57543346 71.1094792 4.57543346 71.1094792 6.63166645 68.5558333 6.63166645 68.5558333 10.2059203 70.3928125 10.2059203 70.3928125 12.3918493 68.5558333 12.3918493 68.5558333 16.1330801 71.1094792 16.1330801 71.1094792 18.1893131 66.5714583 18.1893131"></polygon>
                    <polygon id="Fill-27" fill="#FFFFFF" mask="url(#mask-4)" points="74.1219792 11.0951518 73.9563542 10.4650497 73.8464583 10.4650497 73.8464583 18.1890506 72.0277083 18.1890506 72.0277083 4.57517092 73.79125 4.57517092 75.7204167 11.6695948 75.8860417 12.2986467 75.9959375 12.2986467 75.9959375 4.57517092 77.8146875 4.57517092 77.8146875 18.1890506 76.0511458 18.1890506"></polygon>
                    <path d="M84.0239583,13.5216222 L84.0239583,15.3925002 C84.0052083,15.9480402 83.8953125,16.4479211 83.6932292,16.8742902 C83.528125,17.2444751 83.2703125,17.5968072 82.903125,17.8745772 C82.5359375,18.1707251 82.0395833,18.3377022 81.378125,18.3377022 C80.7171875,18.3377022 80.2026042,18.1707251 79.8348958,17.8745772 C79.4677083,17.5968072 79.2286458,17.2444751 79.0635417,16.8742902 C78.8614583,16.4479211 78.7510417,15.9480402 78.7328125,15.3925002 L78.7328125,7.3723514 C78.7510417,6.83466433 78.8614583,6.33478338 79.0635417,5.90841433 C79.2286458,5.53822938 79.4677083,5.16804443 79.8348958,4.89027445 C80.2026042,4.61197938 80.7171875,4.42714945 81.378125,4.42714945 C82.0395833,4.42714945 82.5359375,4.61197938 82.903125,4.89027445 C83.2703125,5.16804443 83.528125,5.53822938 83.6932292,5.90841433 C83.8953125,6.33478338 84.0052083,6.83466433 84.0239583,7.3723514 L84.0239583,9.24322938 L82.1682292,9.24322938 L82.1682292,7.3723514 C82.1682292,7.00164137 82.0765625,6.74224936 81.8744792,6.52013839 C81.7822917,6.42772343 81.6171875,6.37153933 81.4151042,6.37153933 C81.065625,6.37153933 80.9005208,6.63145642 80.8088542,6.87194537 C80.7536458,7.02054443 80.7354167,7.18699639 80.7171875,7.3723514 L80.7171875,15.3925002 C80.7354167,15.7815882 80.8453125,16.0409802 81.0291667,16.2447132 C81.1208333,16.3371282 81.2494792,16.3922621 81.4151042,16.3922621 C81.8375,16.3922621 82.003125,16.1701511 82.0947917,15.8923812 C82.15,15.7632102 82.1682292,15.5962332 82.1682292,15.3925002 L82.1682292,13.5216222 L84.0239583,13.5216222 Z" id="Fill-28" fill="#FFFFFF" mask="url(#mask-4)"></path>
                    <polygon id="Fill-29" fill="#FFFFFF" mask="url(#mask-4)" points="84.9417708 4.57543346 89.4797917 4.57543346 89.4797917 6.63166645 86.9261458 6.63166645 86.9261458 10.2059203 88.763125 10.2059203 88.763125 12.3918493 86.9261458 12.3918493 86.9261458 16.1330801 89.4797917 16.1330801 89.4797917 18.1893131 84.9417708 18.1893131"></polygon>
                    <polygon id="Fill-30" fill="#FFFFFF" mask="url(#mask-4)" points="37.3167708 22.0983612 34.763125 22.0983612 34.763125 25.6731401 36.600625 25.6731401 36.600625 27.7293731 34.763125 27.7293731 34.763125 33.656533 32.77875 33.656533 32.77875 20.0421282 37.3167708 20.0421282"></polygon>
                    <polygon id="Fill-31" fill="#FFFFFF" mask="url(#mask-4)" points="38.234375 33.6560604 40.21875 33.6560604 40.21875 20.0421807 38.234375 20.0421807"></polygon>
                    <path d="M44.4461979,24.9319301 L44.4461979,22.8389411 C44.4461979,22.4687562 44.3727604,22.2093642 44.1889063,21.9872532 C44.0972396,21.8948382 43.9503646,21.8386541 43.7847396,21.8386541 C43.4363021,21.8386541 43.2706771,22.0985712 43.1972396,22.3390602 C43.1420313,22.4871341 43.1232813,22.6541112 43.1232813,22.8389411 L43.1232813,31.026067 C43.1232813,31.415155 43.2154688,31.674547 43.3988021,31.87828 C43.4909896,31.9706949 43.6196354,32.026354 43.7847396,32.026354 C44.1342188,32.026354 44.2993229,31.8037179 44.3727604,31.5259479 C44.4279688,31.396777 44.4461979,31.2298 44.4461979,31.026067 L44.4461979,28.562368 L43.6560938,28.562368 L43.6560938,26.8773701 L46.4305729,26.8773701 L46.4305729,33.6562179 L45.2550521,33.6562179 L45.0159896,33.008263 C44.6482813,33.471388 44.1154688,33.8042919 43.4727604,33.8042919 C42.8295313,33.8042919 42.3889063,33.6378399 42.0581771,33.341692 C41.7274479,33.0633969 41.5066146,32.7115899 41.3597396,32.341405 C41.1946354,31.9150359 41.1206771,31.415155 41.1394271,30.8590899 L41.1394271,22.8389411 C41.1576563,22.3017791 41.2680729,21.8018982 41.4701563,21.3760542 C41.6352604,21.0053442 41.8743229,20.6351592 42.2415104,20.3573892 C42.6092188,20.0790942 43.1232813,19.8942642 43.7847396,19.8942642 C44.4461979,19.8942642 44.9425521,20.0790942 45.3097396,20.3573892 C45.6769271,20.6351592 45.9342188,21.0053442 46.0998438,21.3760542 C46.3019271,21.8018982 46.4123438,22.3017791 46.4305729,22.8389411 L46.4305729,24.9319301 L44.4461979,24.9319301 Z" id="Fill-32" fill="#FFFFFF" mask="url(#mask-4)"></path>
                    <polygon id="Fill-33" fill="#FFFFFF" mask="url(#mask-4)" points="50.8759896 27.7291631 49.3327604 27.7291631 49.3327604 33.6563229 47.3483854 33.6563229 47.3483854 20.0424432 49.3327604 20.0424432 49.3327604 25.6729301 50.8759896 25.6729301 50.8759896 20.0424432 52.8603646 20.0424432 52.8603646 33.6563229 50.8759896 33.6563229"></polygon>
                    <polygon id="Fill-34" fill="#FFFFFF" mask="url(#mask-4)" points="53.7726042 22.0983612 53.7726042 20.0421282 59.5048958 20.0421282 59.5048958 22.0983612 57.6309375 22.0983612 57.6309375 33.656533 55.6465625 33.656533 55.6465625 22.0983612"></polygon>
                    <polygon id="Fill-35" fill="#FFFFFF" mask="url(#mask-4)" points="60.4229167 20.0423382 64.9604167 20.0423382 64.9604167 22.0985712 62.4067708 22.0985712 62.4067708 25.672825 64.2442708 25.672825 64.2442708 27.858754 62.4067708 27.858754 62.4067708 31.60051 64.9604167 31.60051 64.9604167 33.6562179 60.4229167 33.6562179"></polygon>
                    <path d="M67.8626042,26.0618605 C68.138125,26.0618605 68.5058333,26.0251046 68.7995833,25.7657126 C69.0938542,25.5063206 69.3323958,25.0064396 69.3323958,24.0429086 C69.3323958,23.0799026 69.0938542,22.5611186 68.7995833,22.3017266 C68.5058333,22.0423346 68.138125,22.0244817 67.8626042,22.0244817 L67.8626042,26.0618605 Z M69.4245833,33.6561654 L68.3954167,27.9143605 L67.8626042,27.9143605 L67.8626042,33.6561654 L65.87875,33.6561654 L65.87875,20.0422857 L67.8626042,20.0422857 C70.2329167,20.0422857 71.2433333,21.3943797 71.2433333,23.9688716 C71.2433333,25.3214906 70.894375,26.5433635 70.1407292,27.0621475 L71.4084375,33.6561654 L69.4245833,33.6561654 Z" id="Fill-36" fill="#FFFFFF" mask="url(#mask-4)"></path>
                    <path d="M75.5413021,23.6910491 C75.5413021,23.2468272 75.5230729,22.7469462 75.3944271,22.3578582 C75.2663021,21.9871482 75.0636979,21.7277562 74.7511979,21.7277562 C74.2371354,21.7461341 74.0715104,22.2838212 74.0715104,23.0798501 C74.0715104,23.5429751 74.2735938,24.0244781 74.5673438,24.5432621 C74.8616146,25.061521 75.2475521,25.598683 75.6334896,26.1736511 C76.0928646,26.858362 76.5517188,27.5625011 76.9011979,28.247737 C77.2501563,28.932973 77.4892188,29.637112 77.4892188,30.378007 C77.4892188,31.285354 77.3423438,32.137567 76.9194271,32.767669 C76.4970313,33.397246 75.8168229,33.8047119 74.7329688,33.8047119 C73.4652604,33.8047119 72.7485938,33.3226839 72.3444271,32.5817889 C71.9407813,31.841419 71.8485938,30.8589849 71.8485938,29.840845 L73.7959896,29.65549 C73.7959896,30.229933 73.8147396,30.803851 73.9616146,31.2296949 C74.0902604,31.674442 74.3105729,31.971115 74.7329688,31.971115 C75.3209896,31.971115 75.5413021,31.341013 75.5413021,30.470422 C75.5413021,30.025675 75.3209896,29.507416 75.0267188,28.970254 C74.8616146,28.710862 74.6959896,28.433092 74.5126563,28.1553221 C74.1267188,27.599257 73.7043229,26.9702051 73.2631771,26.2844441 C72.8225521,25.598683 72.4918229,24.8950691 72.2892188,24.1725521 C72.1793229,23.8207451 72.1241146,23.4505602 72.1241146,23.0798501 C72.1241146,22.3389551 72.2892188,21.5429262 72.7121354,20.9312022 C73.1345313,20.3383812 73.7777604,19.9125372 74.7147396,19.8941592 C75.9090104,19.8752562 76.6069271,20.3761873 76.9928646,21.0981792 C77.3788021,21.8390742 77.4892188,22.7469462 77.4892188,23.5056941 L75.5413021,23.6910491 Z" id="Fill-37" fill="#FFFFFF" mask="url(#mask-4)"></path>
                </g>
            </g>
        </g>
    </g>
</svg>