<?xml version="1.0" encoding="UTF-8" standalone="no"?>
<svg width="41px" height="25px" viewBox="0 0 41 25" version="1.1" xmlns="http://www.w3.org/2000/svg" xmlns:xlink="http://www.w3.org/1999/xlink">
    <!-- Generator: Sketch 48.2 (47327) - http://www.bohemiancoding.com/sketch -->
    <title>ico/transport/bus/black</title>
    <desc>Created with Sketch.</desc>
    <defs></defs>
    <g id="1280_03_Espacio_01Landing" stroke="none" stroke-width="1" fill="none" fill-rule="evenodd" transform="translate(-264.000000, -321.000000)">
        <g id="Metro-Copy-2" transform="translate(0.000000, -12.000000)">
            <g id="Header">
                <g id="Metro" transform="translate(117.000000, 324.000000)">
                    <g id="ico/transport/metro/red" transform="translate(146.000000, 0.000000)">
                        <g id="Metro_Madrid" transform="translate(1.720000, 9.460000)">
                            <polygon id="Stroke-2" stroke="#1A1919" stroke-width="0.341" points="19.7543782 23.8135337 0.174673575 12.0676269 19.7528187 0.320829016 39.3309637 12.0676269"></polygon>
                            <polyline id="Fill-3" fill="#0779BF" points="19.7528187 0.880274611 38.3985544 12.0676269 19.7528187 23.2552021 1.1068601 12.0676269 19.7528187 0.880274611"></polyline>
                            <polyline id="Fill-4" fill="#FFFFFE" points="19.7548238 5.35405699 30.9403938 12.0676269 19.7548238 18.7814197 8.56524352 12.0676269 19.7548238 5.35405699"></polyline>
                            <polygon id="Fill-5" fill="#000D24" points="10.8959326 15.563772 28.6094819 15.563772 28.6094819 8.57170466 10.8959326 8.57170466"></polygon>
                            <path d="M24.3027979,12.5005233 C24.3027979,13.4106528 24.8856373,14.0099793 25.7846269,14.0099793 C26.6891865,14.0099793 27.2718031,13.4106528 27.2718031,12.5005233 C27.2718031,11.5850466 26.6891865,10.9857202 25.7846269,10.9857202 C24.8856373,10.9857202 24.3027979,11.5850466 24.3027979,12.5005233 Z M25.0908342,12.5005233 C25.0908342,12.04 25.2519171,11.5794767 25.7846269,11.5794767 C26.3229067,11.5794767 26.4837668,12.04 26.4837668,12.5005233 C26.4837668,12.9556995 26.3229067,13.4162228 25.7846269,13.4162228 C25.2519171,13.4162228 25.0908342,12.9556995 25.0908342,12.5005233 Z" id="Fill-6" fill="#FFFFFE"></path>
                            <path d="M22.3559896,13.9322228 L23.1440259,13.9322228 L23.1440259,12.6393264 C23.1440259,12.1342435 23.3436528,11.718057 23.9209223,11.718057 C24.0151658,11.718057 24.1316891,11.7291969 24.2038756,11.7459067 L24.2038756,11.0133472 C24.1539689,10.9968601 24.0873523,10.9857202 24.0318756,10.9857202 C23.648886,10.9857202 23.2605492,11.2354767 23.1161762,11.5959637 L23.1050363,11.0632539 L22.3559896,11.0632539 L22.3559896,13.9322228" id="Fill-7" fill="#FFFFFE"></path>
                            <path d="M21.2836632,10.2032539 L20.4956269,10.2032539 L20.4956269,11.0632539 L20.0183938,11.0632539 L20.0183938,11.5903938 L20.4956269,11.5903938 L20.4956269,13.2829896 C20.4956269,13.8544663 20.9173834,13.9656425 21.4001865,13.9656425 C21.5554767,13.9656425 21.7274767,13.9600725 21.8607098,13.9377927 L21.8607098,13.3217565 C21.7776062,13.3384663 21.6998497,13.3440363 21.6165233,13.3440363 C21.3502798,13.3440363 21.2836632,13.2774197 21.2836632,13.0111762 L21.2836632,11.5903938 L21.8607098,11.5903938 L21.8607098,11.0632539 L21.2836632,11.0632539 L21.2836632,10.2032539" id="Fill-8" fill="#FFFFFE"></path>
                            <path d="M19.8158705,12.6892332 C19.8713472,11.8069534 19.3996839,10.9857202 18.4229378,10.9857202 C17.5517979,10.9857202 16.9580415,11.6405233 16.9580415,12.5005233 C16.9580415,13.3883731 17.518601,14.0099793 18.4229378,14.0099793 C19.0723938,14.0099793 19.544057,13.721456 19.7659637,13.0443731 L19.0723938,13.0443731 C19.0222642,13.221943 18.7671606,13.4162228 18.4507876,13.4162228 C18.0123212,13.4162228 17.7681347,13.1887461 17.7460777,12.6892332 L19.8158705,12.6892332 Z M17.7460777,12.189943 C17.7569948,11.9678135 17.9013679,11.5794767 18.4008808,11.5794767 C18.7836477,11.5794767 18.9556477,11.7902435 19.0278342,12.189943 L17.7460777,12.189943 Z" id="Fill-9" fill="#FFFFFE"></path>
                            <polyline id="Fill-10" fill="#FFFFFE" points="12.2944352 13.9322228 13.1100984 13.9322228 13.1100984 11.1521503 14.0924145 13.9322228 14.7639275 13.9322228 15.7348808 11.1243005 15.7460207 13.9322228 16.5619067 13.9322228 16.5619067 9.97020725 15.3354041 9.97020725 14.4586943 12.6948031 13.5209378 9.97020725 12.2944352 9.97020725 12.2944352 13.9322228"></polyline>
                        </g>
                    </g>
                </g>
            </g>
        </g>
    </g>
</svg>