<?xml version="1.0" encoding="UTF-8" standalone="no"?>
<svg width="8px" height="11px" viewBox="0 0 8 11" version="1.1" xmlns="http://www.w3.org/2000/svg" xmlns:xlink="http://www.w3.org/1999/xlink">
    <!-- Generator: Sketch 49 (51002) - http://www.bohemiancoding.com/sketch -->
    <title>placeholder</title>
    <desc>Created with Sketch.</desc>
    <defs></defs>
    <g id="SYMBOLS" stroke="none" stroke-width="1" fill="none" fill-rule="evenodd">
        <g id="mod/agenda/speaker/1140/experienceweek" transform="translate(-220.000000, -127.000000)" fill="#000000" fill-rule="nonzero">
            <g id="agenda1">
                <g id="Group" transform="translate(220.000000, 125.000000)">
                    <g id="placeholder" transform="translate(0.000000, 2.000000)">
                        <path d="M3.6328125,0 C1.62967969,0 0,1.62967969 0,3.6328125 C0,4.30960547 0.187473307,4.97009115 0.542277995,5.54310677 L3.42602474,10.1902207 C3.48126367,10.2792448 3.57858268,10.3333333 3.68324805,10.3333333 C3.68405534,10.3333333 3.68484245,10.3333333 3.68564974,10.3333333 C3.79122331,10.3325059 3.88874414,10.2767422 3.94297396,10.1861641 L6.7532168,5.49402344 C7.08844466,4.93311719 7.265625,4.28952409 7.265625,3.6328125 C7.265625,1.62967969 5.63594531,0 3.6328125,0 Z M6.2336237,5.18317578 L3.67866667,9.44906641 L1.05688607,5.22410547 C0.761558594,4.74715755 0.601432292,4.19690755 0.601432292,3.6328125 C0.601432292,1.96353516 1.96353516,0.601432292 3.6328125,0.601432292 C5.30208984,0.601432292 6.66217448,1.96353516 6.66217448,3.6328125 C6.66217448,4.18017643 6.51260352,4.71635938 6.2336237,5.18317578 Z" id="Shape"></path>
                        <path d="M3.6328125,1.81640625 C2.63124609,1.81640625 1.81640625,2.63124609 1.81640625,3.6328125 C1.81640625,4.62798112 2.61798633,5.44921875 3.6328125,5.44921875 C4.66015169,5.44921875 5.44921875,4.61704232 5.44921875,3.6328125 C5.44921875,2.63124609 4.63437891,1.81640625 3.6328125,1.81640625 Z M3.6328125,4.84778646 C2.96161003,4.84778646 2.41783854,4.30219857 2.41783854,3.6328125 C2.41783854,2.96510156 2.96510156,2.41783854 3.6328125,2.41783854 C4.30052344,2.41783854 4.84576823,2.96510156 4.84576823,3.6328125 C4.84576823,4.29243034 4.31465104,4.84778646 3.6328125,4.84778646 Z" id="Shape"></path>
                    </g>
                </g>
            </g>
        </g>
    </g>
</svg>