<svg width="12" height="8" viewBox="0 0 12 8" version="1.1" xmlns="http://www.w3.org/2000/svg" xmlns:xlink="http://www.w3.org/1999/xlink">
<title>bike</title>
<desc>Created using Figma</desc>
<g id="Canvas" transform="translate(-11746 -212)">
<g id="bike">
<g id="Shape">
<use xlink:href="#path0_fill" transform="translate(11746 212.013)" fill="#FFFFFF"/>
</g>
</g>
</g>
<defs>
<path id="path0_fill" fill-rule="evenodd" d="M 8.67285 2.74123C 8.94531 2.63588 9.24219 2.57796 9.55176 2.57796C 10.9014 2.57796 12 3.67638 12 5.02647C 12 6.37657 10.9014 7.47498 9.55176 7.47498C 8.20117 7.47498 7.10254 6.37657 7.10254 5.02647C 7.10254 4.23848 7.47754 3.53636 8.05762 3.0882C 7.91113 2.76715 7.77539 2.43111 7.66699 2.09572L 5.81934 5.20601C 5.75586 5.31265 5.6416 5.37802 5.51758 5.37802L 4.87207 5.37802C 4.7002 6.56215 3.67969 7.47495 2.44824 7.47495C 1.09863 7.47495 0 6.37654 0 5.02646C 0 3.67636 1.09863 2.57796 2.44824 2.57794C 2.68945 2.57794 2.92188 2.61298 3.1416 2.6779L 2.83398 1.90578L 2.44824 1.90578C 2.25391 1.90578 2.09668 1.74837 2.09668 1.55421C 2.09668 1.36006 2.25391 1.20265 2.44824 1.20265L 3.66113 1.20265C 3.85449 1.20265 4.0127 1.36006 4.0127 1.55421C 4.0127 1.74837 3.85449 1.90578 3.66113 1.90578L 3.59082 1.90578L 3.75879 2.32814L 6.71094 2.32814L 7.26367 1.3979L 7.37305 1.21404L 7.39941 1.17612C 7.28223 0.961899 7.08203 0.802383 6.84668 0.736481C 6.76855 0.714798 6.6875 0.703125 6.60352 0.703125C 6.41016 0.703125 6.25195 0.545715 6.25195 0.351562C 6.25195 0.15741 6.41016 0 6.60352 0C 7.37012 0 8.0332 0.544998 8.18164 1.29588C 8.27441 1.76344 8.45898 2.26601 8.67285 2.74123ZM 4.1582 5.37801L 2.44824 5.37801C 2.25391 5.37801 2.09668 5.22061 2.09668 5.02644C 2.09668 4.83229 2.25391 4.67488 2.44824 4.67488L 4.1582 4.67488C 3.99512 3.88043 3.29004 3.28108 2.44824 3.28108C 1.48633 3.28108 0.703125 4.06406 0.703125 5.02644C 0.703125 5.98885 1.48633 6.77179 2.44824 6.77182C 3.29004 6.77182 3.99512 6.17247 4.1582 5.37801ZM 5.31738 4.6749L 4.87109 4.6749C 4.79004 4.11008 4.51465 3.60706 4.11621 3.23534L 4.10254 3.19327L 4.03809 3.0313L 6.29297 3.0313L 5.31738 4.6749ZM 7.80566 5.02643C 7.80566 5.98882 8.58887 6.77179 9.55078 6.77179C 10.5137 6.77179 11.2969 5.9888 11.2969 5.0264C 11.2969 4.06401 10.5137 3.28104 9.55078 3.28104C 9.35156 3.28104 9.16016 3.31511 8.98145 3.37701C 9.40723 4.19531 9.83301 4.81572 9.84082 4.82669C 9.9502 4.9865 9.91016 5.20544 9.75098 5.31573C 9.68945 5.3578 9.62012 5.37801 9.55176 5.37801C 9.43945 5.37801 9.33008 5.32497 9.26172 5.22614C 9.22949 5.18005 8.80762 4.56407 8.375 3.73776C 8.02539 4.05717 7.80566 4.51659 7.80566 5.02643Z"/>
</defs>
</svg>
