<svg width="15" height="15" viewBox="0 0 15 15" version="1.1" xmlns="http://www.w3.org/2000/svg" xmlns:xlink="http://www.w3.org/1999/xlink">
<title>black copy</title>
<desc>Created using Figma</desc>
<g id="Canvas" transform="translate(-17362 -624)">
<g id="ico/calendar/black copy">
<g id="headphones">
<g id="Shape">
<use xlink:href="#path0_fill" transform="translate(17362 625.004)" fill="#000D24"/>
</g>
</g>
</g>
</g>
<defs>
<path id="path0_fill" fill-rule="evenodd" d="M 7.49609 0C 11.6289 0 14.9922 3.36261 14.9922 7.49579C 14.9922 8.20844 14.8926 8.91223 14.6953 9.58942C 14.8262 9.91724 14.8945 10.2699 14.8945 10.6333C 14.8945 11.3878 14.5996 12.097 14.0664 12.6306C 13.5332 13.1639 12.8242 13.4577 12.0703 13.4577C 11.3691 13.4577 10.707 13.2039 10.1895 12.7404C 10.125 12.7572 10.0566 12.7668 9.98633 12.7668C 9.77148 12.7668 9.56836 12.6828 9.41602 12.5302L 8.99219 12.1071C 8.67773 11.7921 8.67773 11.2796 8.99219 10.9646L 12.4004 7.55621C 12.7168 7.24121 13.2285 7.24127 13.543 7.55621L 13.9668 7.97937C 14.1191 8.13196 14.2031 8.33484 14.2031 8.5506C 14.2031 8.61993 14.1934 8.68762 14.1777 8.75305L 14.3047 8.90601C 14.3984 8.4444 14.4473 7.97229 14.4473 7.49573C 14.4473 5.31207 13.4355 3.36072 11.8555 2.08545L 11.7578 2.23712C 11.4941 2.64795 10.9414 2.77527 10.5254 2.52094C 9.61523 1.96381 8.56641 1.66937 7.49609 1.66937C 6.42578 1.66937 5.37695 1.96381 4.4668 2.52081C 4.32227 2.6098 4.16016 2.65222 3.99805 2.65222C 3.69922 2.65228 3.40625 2.505 3.23438 2.23743L 3.13672 2.08557C 1.55664 3.36078 0.544922 5.31213 0.544922 7.49579C 0.544922 7.97253 0.59375 8.44482 0.6875 8.90662C 0.728516 8.85437 0.769531 8.80298 0.814453 8.75311C 0.798828 8.68768 0.789062 8.62 0.789062 8.55066C 0.789062 8.3349 0.873047 8.13202 1.02539 7.97943L 1.44922 7.55627C 1.60156 7.40369 1.80469 7.3197 2.01953 7.3197C 2.23633 7.3197 2.4375 7.40369 2.5918 7.55627L 6 10.9647C 6.31445 11.2797 6.31445 11.7921 6 12.1071L 5.57617 12.5303C 5.42383 12.6829 5.2207 12.7669 5.00391 12.7669C 4.93555 12.7669 4.86719 12.7573 4.80273 12.7405C 4.28516 13.204 3.62305 13.4578 2.92188 13.4578C 2.16797 13.4578 1.45898 13.164 0.925781 12.6306C 0.105469 11.8105 -0.103516 10.6074 0.296875 9.59174C 0.0996094 8.91382 0 8.20923 0 7.49579C 0 3.36261 3.36328 6.10352e-05 7.49609 0ZM 1.13086 9.22614C 0.427734 10.1199 0.486328 11.4218 1.31055 12.2454C 1.74219 12.6759 2.31445 12.913 2.92188 12.913C 3.43945 12.913 3.92969 12.7415 4.33008 12.4262L 1.13086 9.22614ZM 1.41016 8.36462L 1.83398 7.94147C 1.88477 7.89178 1.94922 7.86444 2.01953 7.86444C 2.08984 7.86444 2.15625 7.89178 2.20703 7.94147L 5.61523 11.3499C 5.7168 11.4525 5.7168 11.6193 5.61523 11.7219L 5.19141 12.145C 5.14258 12.1947 5.07617 12.222 5.00586 12.222C 4.93555 12.222 4.86914 12.1947 4.82031 12.145L 1.41016 8.73663C 1.36133 8.68695 1.33398 8.62085 1.33398 8.5506C 1.33398 8.48041 1.36133 8.41431 1.41016 8.36462ZM 10.8105 2.05609C 10.9766 2.15704 11.1953 2.10669 11.2988 1.9436L 11.418 1.75916C 10.3008 0.993469 8.95117 0.5448 7.49805 0.5448C 6.04297 0.5448 4.69336 0.99353 3.57617 1.75928L 3.69336 1.9436C 3.79883 2.10663 4.01758 2.15729 4.18359 2.05621C 5.17969 1.44672 6.32617 1.12463 7.49805 1.12463C 8.66797 1.12463 9.81445 1.44678 10.8105 2.05609ZM 9.80078 12.1451L 9.37695 11.7219C 9.27539 11.6193 9.27539 11.4525 9.37695 11.3499L 12.7852 7.94153C 12.8379 7.89026 12.9043 7.86462 12.9727 7.86462C 13.0391 7.86462 13.1074 7.89026 13.1582 7.94153L 13.582 8.36475C 13.6309 8.41443 13.6582 8.48047 13.6582 8.55072C 13.6582 8.62097 13.6309 8.68707 13.582 8.73676L 10.1719 12.1451C 10.123 12.1948 10.0566 12.2222 9.98633 12.2222C 9.91602 12.2221 9.84961 12.1948 9.80078 12.1451ZM 12.0703 12.913C 12.6777 12.913 13.25 12.6759 13.6816 12.2454C 14.1113 11.8148 14.3496 11.2423 14.3496 10.6334C 14.3496 10.1163 14.1777 9.62585 13.8613 9.22595L 10.6621 12.4262C 11.0625 12.7414 11.5527 12.913 12.0703 12.913Z"/>
</defs>
</svg>
