<svg width="15" height="15" viewBox="0 0 15 15" version="1.1" xmlns="http://www.w3.org/2000/svg" xmlns:xlink="http://www.w3.org/1999/xlink">
<title>black</title>
<desc>Created using Figma</desc>
<g id="Canvas" transform="translate(-17216 -625)">
<g id="ico/calendar/black">
<g id="chat">
<g id="Shape">
<use xlink:href="#path0_fill" transform="translate(17216 625)" fill="#000D24"/>
</g>
</g>
</g>
</g>
<defs>
<path id="path0_fill" fill-rule="evenodd" d="M 1.5 0L 13.5 0C 14.3125 0 15 0.736084 15 1.60712L 15 10.4464C 15 11.3175 14.3125 12.0536 13.5 12.0536L 6.36133 12.0536L 3.93555 14.9124C 3.88672 14.9692 3.81836 15 3.75 15C 3.7207 15 3.68945 14.9941 3.66016 14.9821C 3.56445 14.9421 3.5 14.8428 3.5 14.7321L 3.5 12.0536L 1.5 12.0536C 0.6875 12.0536 0 11.3175 0 10.4464L 0 1.60712C 0 0.736084 0.6875 0 1.5 0ZM 13.5 11.5178C 14.043 11.5178 14.5 11.0272 14.5 10.4464L 14.5 1.60712C 14.5 1.02643 14.043 0.535706 13.5 0.535706L 1.5 0.535706C 0.957031 0.535706 0.5 1.02643 0.5 1.60712L 0.5 10.4464C 0.5 11.0272 0.957031 11.5178 1.5 11.5178L 3.75 11.5178C 3.88867 11.5178 4 11.6379 4 11.7857L 4 14.0394L 6.06055 11.6105L 7.31055 10.054C 7.40039 9.94202 7.55859 9.9292 7.66211 10.0256C 7.76758 10.1221 7.7793 10.2913 7.68945 10.4033L 6.79492 11.5178L 13.5 11.5178Z"/>
</defs>
</svg>
