<svg width="15" height="15" viewBox="0 0 15 15" version="1.1" xmlns="http://www.w3.org/2000/svg" xmlns:xlink="http://www.w3.org/1999/xlink">
<title>black copy</title>
<desc>Created using Figma</desc>
<g id="Canvas" transform="translate(-16964 -624)">
<rect x="16964" y="624" width="15" height="15" fill="#FFFFFF"/>
<clipPath id="clip-0" clip-rule="evenodd">
<path d="M 16702 -233L 17982 -233L 17982 3912L 16702 3912L 16702 -233Z" fill="#FFFFFF"/>
</clipPath>
<g id="1280_07_Speakers_02Speaker" clip-path="url(#clip-0)">
<path d="M 16702 -233L 17982 -233L 17982 3912L 16702 3912L 16702 -233Z" fill="#F9F9FB"/>
<g id="Group 2">
<g id="Rectangle 5" filter="url(#filter0_d)">
<use xlink:href="#path0_fill" transform="translate(16778 439)" fill="#FFFFFF"/>
</g>
<g id="tag/show/blue">
<g id="ico/calendar/black copy">
<g id="microphone">
<g id="Shape">
<use xlink:href="#path1_fill" transform="translate(16968 631.534)"/>
</g>
<g id="Shape">
<use xlink:href="#path2_fill" transform="translate(16969.1 625.5)"/>
</g>
</g>
</g>
</g>
</g>
</g>
</g>
<defs>
<filter id="filter0_d" filterUnits="userSpaceOnUse" x="16748" y="417" width="1187" height="1545" color-interpolation-filters="sRGB">
<feFlood flood-opacity="0" result="BackgroundImageFix"/>
<feColorMatrix in="SourceAlpha" type="matrix" values="0 0 0 0 0 0 0 0 0 0 0 0 0 0 0 0 0 0 255 0"/>
<feOffset dx="0" dy="8"/>
<feGaussianBlur stdDeviation="15"/>
<feColorMatrix type="matrix" values="0 0 0 0 0 0 0 0 0 0 0 0 0 0 0 0 0 0 0.25 0"/>
<feBlend mode="normal" in2="BackgroundImageFix" result="effect1_dropShadow"/>
<feBlend mode="normal" in="SourceGraphic" in2="effect1_dropShadow" result="shape"/>
</filter>
<path id="path0_fill" fill-rule="evenodd" d="M 0 0L 1127 0L 1127 1485L 0 1485L 0 0Z"/>
<path id="path1_fill" d="M 6.68103 0C 6.56207 0 6.46552 0.0963362 6.46552 0.215517L 6.46552 1.50862C 6.46552 3.17241 5.11207 4.52586 3.44828 4.52586C 1.78448 4.52586 0.431034 3.17241 0.431034 1.50862L 0.431034 0.215517C 0.431034 0.0963362 0.334483 0 0.215517 0C 0.0965517 0 0 0.0963362 0 0.215517L 0 1.50862C 0 3.33728 1.4319 4.83384 3.23276 4.94591L 3.23276 6.03448L 2.15517 6.03448C 2.03621 6.03448 1.93966 6.13082 1.93966 6.25C 1.93966 6.36918 2.03621 6.46552 2.15517 6.46552L 4.74138 6.46552C 4.86034 6.46552 4.9569 6.36918 4.9569 6.25C 4.9569 6.13082 4.86034 6.03448 4.74138 6.03448L 3.66379 6.03448L 3.66379 4.94591C 5.46466 4.83384 6.89655 3.33707 6.89655 1.50862L 6.89655 0.215517C 6.89655 0.0963362 6.8 0 6.68103 0Z"/>
<path id="path2_fill" fill-rule="evenodd" d="M 4.74219 7.54309C 4.74219 8.85022 3.67773 9.91382 2.37109 9.91382C 1.06445 9.91382 0 8.85022 0 7.54309L 0 2.37067C 0 1.0636 1.06445 0 2.37109 0C 3.67773 0 4.74219 1.0636 4.74219 2.37067L 4.74219 7.54309ZM 2.37109 0.43103C 1.30273 0.43103 0.431641 1.30109 0.431641 2.37067L 0.431641 7.54309C 0.431641 8.61273 1.30273 9.48273 2.37109 9.48273C 3.44141 9.48273 4.31055 8.61273 4.31055 7.54309L 4.31055 2.37067C 4.31055 1.30109 3.44141 0.43103 2.37109 0.43103Z"/>
</defs>
</svg>
