<svg width="34" height="34" viewBox="0 0 34 34" version="1.1" xmlns="http://www.w3.org/2000/svg" xmlns:xlink="http://www.w3.org/1999/xlink">
<title>instagram</title>
<desc>Created using Figma</desc>
<g id="Canvas" transform="translate(-31779 2)">
<g id="ico/social/instagram">
<g id="social_instagram">
<g id="Exclude">
<use xlink:href="#path0_fill" transform="translate(31779 -2)" fill="#FFFFFF"/>
</g>
</g>
</g>
</g>
<defs>
<path id="path0_fill" fill-rule="evenodd" d="M 34 17C 34 26.3888 26.3887 34 17 34C 7.61133 34 0 26.3888 0 17C 0 7.61116 7.61133 0 17 0C 26.3887 0 34 7.61116 34 17ZM 22.2305 8.5L 11.7891 8.5C 9.97656 8.50551 8.50977 9.97688 8.50977 11.79L 8.50977 22.23C 8.50977 24.0415 9.97852 25.51 11.7891 25.51L 22.2305 25.51C 24.041 25.51 25.5098 24.0415 25.5098 22.23L 25.5098 11.79C 25.5098 9.97688 24.043 8.50551 22.2305 8.5ZM 23.1699 10.5L 23.5508 10.5L 23.5508 13.39L 20.6699 13.39L 20.6699 10.47L 23.1699 10.5ZM 18.3848 14.4144C 17.0723 13.7293 15.4551 14.1054 14.5781 15.3L 14.5781 15.26C 14.209 15.7652 14.0059 16.3737 13.998 17C 13.9629 18.481 15.0117 19.767 16.4707 20.0275C 17.9297 20.288 19.3594 19.4451 19.8379 18.043C 20.3164 16.6409 19.6992 15.0996 18.3848 14.4144ZM 23.8594 22.3C 23.8555 23.1963 23.127 23.92 22.2305 23.92L 11.791 23.92C 10.8945 23.92 10.166 23.1963 10.1602 22.3L 10.1602 15.3L 12.6992 15.3C 11.9141 17.2423 12.5234 19.4707 14.1895 20.7419C 15.8555 22.0132 18.166 22.0132 19.832 20.7419C 21.4961 19.4707 22.1074 17.2423 21.3203 15.3L 23.8594 15.3L 23.8594 22.3Z"/>
</defs>
</svg>
