<svg width="30" height="30" viewBox="0 0 30 30" version="1.1" xmlns="http://www.w3.org/2000/svg" xmlns:xlink="http://www.w3.org/1999/xlink">
<title>facebook copy</title>
<desc>Created using Figma</desc>
<g id="Canvas" transform="translate(-19418 -2594)">
<g id="ico/social/facebook copy">
<g id="social_linkedin">
<g id="Shape">
<use xlink:href="#path0_fill" transform="translate(19418 2594.48)" fill="#A2A7AF"/>
</g>
<g id="Shape">
<use xlink:href="#path1_fill" transform="translate(19425.5 2601.85)" fill="#FFFFFF"/>
</g>
</g>
</g>
</g>
<defs>
<path id="path0_fill" d="M 15 29.5161C 23.2843 29.5161 30 22.9087 30 14.7581C 30 6.60741 23.2843 4.99084e-16 15 0C 6.71573 -4.99084e-16 1.01453e-15 6.60741 0 14.7581C -1.01453e-15 22.9087 6.71573 29.5161 15 29.5161"/>
<path id="path1_fill" fill-rule="evenodd" d="M 1.76562 3.20329C 1.3125 3.24211 0.863281 3.09245 0.527344 2.79045C 0.191406 2.48845 0 2.06193 0 1.61467C 0.00390625 1.16691 0.195312 0.740401 0.529297 0.436446C 0.863281 0.132247 1.31055 -0.0225382 1.76562 0.00871183C 2.38477 -0.0550089 2.98828 0.234542 3.31836 0.755294C 3.64844 1.2758 3.64844 1.9362 3.31836 2.45671C 2.98828 2.97722 2.38477 3.26701 1.76562 3.20329ZM 3.30078 13.5685L 0.371094 13.5685L 0.371094 4.35783L 3.30078 4.35783L 3.30078 13.5685ZM 11.6816 13.5688L 15 13.5688L 15 8.44694C 15 5.59953 13.3672 4.27116 11.293 4.27116C 10.0957 4.16032 8.94531 4.7653 8.37305 5.80778L 8.37305 4.35808L 5.08203 4.35808C 5.12695 5.13078 5.08203 13.5688 5.08203 13.5688L 8.37305 13.5688L 8.37305 8.58586C 8.34961 8.33195 8.37305 8.07585 8.44336 7.83049C 8.66992 7.16057 9.30469 6.70671 10.0234 6.70207C 11.1699 6.70207 11.6816 7.55266 11.6816 8.8029L 11.6816 13.5688Z"/>
</defs>
</svg>
