<?xml version="1.0" encoding="UTF-8" standalone="no"?>
<svg width="30px" height="30px" viewBox="0 0 30 30" version="1.1" xmlns="http://www.w3.org/2000/svg" xmlns:xlink="http://www.w3.org/1999/xlink">
    <!-- Generator: Sketch 48.2 (47327) - http://www.bohemiancoding.com/sketch -->
    <title>linkedin</title>
    <desc>Created with Sketch.</desc>
    <defs></defs>
    <g id="navigation/footer/no_newsletter" stroke="none" stroke-width="1" fill="none" fill-rule="evenodd" transform="translate(-1251.000000, -88.000000)">
        <g id="Footer" transform="translate(0.000000, -3.000000)">
            <g id="social" transform="translate(1095.000000, 59.000000)">
                <g id="ico/social/linkedin" transform="translate(156.000000, 32.000000)">
                    <g id="social_linkedin">
                        <path d="M15,30 C23.2842712,30 30,23.2842712 30,15 C30,6.71572875 23.2842712,5.07265313e-16 15,0 C6.71572875,-5.07265313e-16 1.01453063e-15,6.71572875 0,15 C-1.01453063e-15,23.2842712 6.71572875,30 15,30" id="Shape" fill="#1385C8" fill-rule="nonzero"></path>
                        <path d="M10.8088235,21.2823529 L7.87941176,21.2823529 L7.87941176,11.9205882 L10.8088235,11.9205882 L10.8088235,21.2823529 Z M9.27352941,10.7470588 C8.8205844,10.7865957 8.37181539,10.6343907 8.03637717,10.3274647 C7.70093895,10.0205387 7.50957226,9.58701962 7.50882353,9.13235294 C7.51258935,8.67719952 7.70420848,8.24381892 8.03834779,7.93474006 C8.37248709,7.6256612 8.81946271,7.46834166 9.27352941,7.5 C9.89397638,7.4352261 10.4970882,7.7297308 10.8275388,8.25883616 C11.1579895,8.78794153 11.1579895,9.4591173 10.8275388,9.98822266 C10.4970882,10.517328 9.89397638,10.8118327 9.27352941,10.7470588 Z M22.5088235,21.2823529 L19.1911765,21.2823529 L19.1911765,16.4382353 C19.1911765,15.1676471 18.6794118,14.3029412 17.5323529,14.3029412 C16.8146174,14.3077728 16.1795834,14.7689706 15.9529412,15.45 C15.8820437,15.699297 15.8581076,15.9596013 15.8823529,16.2176471 L15.8823529,21.2823529 L12.5911765,21.2823529 C12.5911765,21.2823529 12.6352941,12.7058824 12.5911765,11.9205882 L15.8823529,11.9205882 L15.8823529,13.3941176 C16.4542847,12.3346297 17.6042202,11.7197096 18.8029412,11.8323529 C20.8764706,11.8323529 22.5088235,13.1823529 22.5088235,16.0764706 L22.5088235,21.2823529 Z" id="Shape" fill="#FFFFFF" fill-rule="nonzero"></path>
                    </g>
                </g>
            </g>
        </g>
    </g>
</svg>