<svg width="34" height="34" viewBox="0 0 34 34" version="1.1" xmlns="http://www.w3.org/2000/svg" xmlns:xlink="http://www.w3.org/1999/xlink">
<title>linkedin</title>
<desc>Created using Figma</desc>
<g id="Canvas" transform="translate(-32433 2)">
<g id="ico/social/linkedin">
<g id="social_linkedin">
<g id="Exclude">
<use xlink:href="#path0_fill" transform="translate(32433 -2)" fill="#FFFFFF"/>
</g>
</g>
</g>
</g>
<defs>
<path id="path0_fill" fill-rule="evenodd" d="M 34 17C 34 26.3888 26.3887 34 17 34C 7.61133 34 0 26.3888 0 17C 0 7.61116 7.61133 0 17 0C 26.3887 0 34 7.61116 34 17ZM 9.10742 11.7045C 9.48828 12.0523 9.99609 12.2248 10.5098 12.18C 11.2129 12.2534 11.8965 11.9196 12.2715 11.32C 12.6445 10.7203 12.6445 9.95967 12.2715 9.36001C 11.8965 8.76036 11.2129 8.42659 10.5098 8.5C 9.99609 8.46412 9.48828 8.64242 9.10938 8.9927C 8.73047 9.34299 8.51367 9.83416 8.50977 10.35C 8.50977 10.8653 8.72656 11.3566 9.10742 11.7045ZM 8.92969 24.12L 12.25 24.12L 12.25 13.51L 8.92969 13.51L 8.92969 24.12ZM 25.5098 24.12L 21.75 24.12L 21.75 18.63C 21.75 17.19 21.1699 16.21 19.8691 16.21C 19.0566 16.2155 18.3359 16.7382 18.0801 17.51C 18 17.7925 17.9727 18.0875 18 18.38L 18 24.12L 14.2695 24.12C 14.2695 24.12 14.3203 14.4 14.2695 13.51L 18 13.51L 18 15.18C 18.6484 13.9792 19.9512 13.2823 21.3086 13.41C 23.6602 13.41 25.5098 14.94 25.5098 18.22L 25.5098 24.12Z"/>
</defs>
</svg>
