<svg width="30" height="30" viewBox="0 0 30 30" version="1.1" xmlns="http://www.w3.org/2000/svg" xmlns:xlink="http://www.w3.org/1999/xlink">
<title>facebook copy 5</title>
<desc>Created using Figma</desc>
<g id="Canvas" transform="translate(-19301 -2594)">
<g id="ico/social/facebook copy 5">
<g id="social_twitter">
<g id="Shape">
<use xlink:href="#path0_fill" transform="translate(19301 2594.48)" fill="#A2A7AF"/>
</g>
<g id="Shape">
<use xlink:href="#path1_fill" transform="translate(19308.5 2603.96)" fill="#FFFFFF"/>
</g>
</g>
</g>
</g>
<defs>
<path id="path0_fill" d="M 15 29.5161C 23.2843 29.5161 30 22.9087 30 14.7581C 30 6.60741 23.2843 4.99084e-16 15 0C 6.71573 -4.99084e-16 1.01453e-15 6.60741 0 14.7581C -1.01453e-15 22.9087 6.71573 29.5161 15 29.5161"/>
<path id="path1_fill" d="M 15.0265 1.41742C 14.4665 1.66443 13.8714 1.82545 13.2618 1.89488C 13.9098 1.52108 14.394 0.924099 14.6206 0.21941C 14.0144 0.571937 13.3522 0.821401 12.6618 0.957313C 11.7951 0.0503607 10.4539 -0.244743 9.2771 0.212622C 8.10036 0.669988 7.3262 1.78729 7.32353 3.03212C 7.32281 3.26299 7.34946 3.49315 7.40294 3.71794C 4.92362 3.59878 2.61321 2.44642 1.05 0.549296C 0.234365 1.93692 0.650905 3.70902 2.00294 4.60342C 1.51415 4.58588 1.03648 4.455 0.608824 4.22145L 0.608824 4.26486C 0.60929 5.70687 1.64269 6.94873 3.07941 7.23383C 2.81612 7.31136 2.54246 7.34941 2.26765 7.34669C 2.07184 7.34768 1.87653 7.3273 1.68529 7.28592C 2.09144 8.52249 3.25001 9.36956 4.57059 9.39545C 3.47925 10.2408 2.13015 10.6996 0.741176 10.6976C 0.494293 10.7106 0.246884 10.7106 0 10.6976C 2.70212 12.3975 6.13134 12.5124 8.94473 10.9973C 11.7581 9.48222 13.5079 6.5783 13.5088 3.42278C 13.5088 3.29256 13.5088 3.16234 13.5088 3.03212C 14.111 2.60183 14.6308 2.06982 15.0441 1.46082"/>
</defs>
</svg>
