<svg width="34" height="34" viewBox="0 0 34 34" version="1.1" xmlns="http://www.w3.org/2000/svg" xmlns:xlink="http://www.w3.org/1999/xlink">
<title>twitter</title>
<desc>Created using Figma</desc>
<g id="Canvas" transform="translate(-31511 2)">
<g id="ico/social/twitter">
<g id="social_twitter">
<g id="Exclude">
<use xlink:href="#path0_fill" transform="translate(31511 -2)" fill="#FFFFFF"/>
</g>
</g>
</g>
</g>
<defs>
<path id="path0_fill" fill-rule="evenodd" d="M 34 17C 34 26.3888 26.3887 34 17 34C 7.61133 34 0 26.3888 0 17C 0 7.61116 7.61133 0 17 0C 26.3887 0 34 7.61116 34 17ZM 23.5391 13.1C 24.2305 13.02 24.9043 12.8345 25.5391 12.55L 25.5605 12.6C 25.0918 13.3015 24.502 13.9143 23.8203 14.41L 23.8203 14.86C 23.8184 18.4949 21.8359 21.8399 18.6465 23.5852C 15.459 25.3304 11.5723 25.1981 8.50977 23.24C 8.78906 23.2549 9.07031 23.2549 9.34961 23.24C 10.9238 23.2422 12.4531 22.7138 13.6895 21.74C 12.1934 21.7102 10.8809 20.7344 10.4199 19.31C 10.6367 19.3577 10.8574 19.3811 11.0801 19.38C 11.3906 19.3831 11.7012 19.3393 12 19.25C 10.3711 18.9216 9.20117 17.4911 9.19922 15.83L 9.19922 15.78C 9.68359 16.049 10.2266 16.1998 10.7793 16.22C 9.24805 15.1897 8.77539 13.1484 9.69922 11.55C 11.4707 13.7353 14.0898 15.0627 16.9004 15.2C 16.8398 14.9411 16.8086 14.6759 16.8105 14.41C 16.8125 12.9761 17.6895 11.689 19.0234 11.1622C 20.3574 10.6353 21.877 10.9753 22.8594 12.02C 23.6426 11.8634 24.3926 11.5761 25.0801 11.17C 24.8223 11.9817 24.2734 12.6694 23.5391 13.1Z"/>
</defs>
</svg>
