<?xml version="1.0" encoding="utf-8"?>
<!-- Generator: Adobe Illustrator 23.0.0, SVG Export Plug-In . SVG Version: 6.00 Build 0)  -->
<svg version="1.1" id="Capa_1" xmlns="http://www.w3.org/2000/svg" xmlns:xlink="http://www.w3.org/1999/xlink" x="0px" y="0px"
	 viewBox="0 0 191.9 65.3" style="enable-background:new 0 0 191.9 65.3;" xml:space="preserve">
<style type="text/css">
	.st0{fill:#FF3700;}
</style>
<g>
	<g id="Capa_2_2_">
		<g id="Capa_1-2_1_">
			<path class="st0" d="M93.6,5.7h-9.7c-1.1,0-2,0.9-2,2s0.9,2,2,2h8.9c11.6,0,21,9.4,21,21c0,11.6-9.4,21-21,21h-6.3
				c-4,0-7.7-1.6-7.7-7.1V18.4c0.1-0.7,0.5-1.2,1.1-1.4h12.8c7.6,0,13.7,6.2,13.7,13.7s-6.2,13.7-13.7,13.7h-5.3
				c-0.8-0.1-1.3-0.7-1.4-1.5V29c0-1.1-0.9-2-2-2s-2,0.9-2,2v15.5c0,2.2,1.8,4,4,4h6.7c9.8,0,17.7-7.9,17.8-17.7
				c0-9.8-8-17.7-15.5-17.7H78.8c-3,0-4,2.8-4,4c0,0.8,0,28.2,0,28.2c0,10.4,8.8,10.5,10.6,10.5h8.3c13.8-0.6,24.7-12.3,24.1-26.2
				C117.1,16.7,106.6,6.3,93.6,5.7z"/>
			<path class="st0" d="M84,24c1.1,0,2-0.9,2-2c0-1.1-0.9-2-2-2c-1.1,0-2,0.9-2,2l0,0C82,23.1,82.9,24,84,24z"/>
			<path class="st0" d="M127.8,12.9c0.6,0,1.2,0.1,1.8,0.3c0.5,0.2,1,0.5,1.5,0.9c0.4,0.4,0.7,1,1,1.5c0.2,0.7,0.4,1.4,0.3,2.2
				c0,0.7-0.1,1.4-0.3,2c-0.2,0.6-0.5,1.1-0.8,1.6c-0.4,0.5-0.9,0.8-1.4,1.1c-0.6,0.3-1.3,0.4-2,0.4h-4.3v-10H127.8z M127.6,21.1
				c0.3,0,0.6-0.1,0.9-0.2c0.3-0.1,0.6-0.3,0.8-0.5c0.3-0.3,0.4-0.6,0.6-0.9c0.2-0.5,0.2-0.9,0.2-1.4c0-0.5,0-0.9-0.1-1.4
				c-0.1-0.4-0.2-0.7-0.5-1c-0.2-0.3-0.5-0.5-0.9-0.6c-0.4-0.2-0.9-0.2-1.4-0.2h-1.6v6.3H127.6z"/>
			<path class="st0" d="M133,14.6v-1.6h2v1.6L133,14.6z M135,15.7V23h-2v-7.3H135z"/>
			<path class="st0" d="M142.7,23.5c-0.1,0.4-0.3,0.7-0.5,1c-0.3,0.4-0.7,0.6-1.1,0.8c-0.6,0.3-1.3,0.4-2,0.3c-0.4,0-0.7,0-1.1-0.1
				c-0.4-0.1-0.7-0.2-1-0.4c-0.3-0.2-0.6-0.4-0.8-0.7c-0.2-0.3-0.3-0.7-0.3-1.1h2c0.1,0.3,0.3,0.6,0.5,0.8c0.3,0.2,0.6,0.2,0.9,0.2
				c0.5,0,0.9-0.1,1.2-0.5c0.3-0.4,0.4-0.8,0.4-1.3v-1l0,0c-0.2,0.4-0.5,0.7-0.9,0.8c-0.4,0.2-0.8,0.3-1.3,0.3c-0.5,0-1-0.1-1.4-0.3
				c-0.4-0.2-0.7-0.4-1-0.8c-0.3-0.4-0.5-0.8-0.6-1.2c-0.1-0.5-0.2-0.9-0.2-1.4c0-0.5,0.1-0.9,0.2-1.4c0.1-0.4,0.3-0.8,0.6-1.2
				c0.3-0.3,0.6-0.6,1-0.8c0.4-0.2,0.9-0.3,1.3-0.3c0.4,0,0.9,0.1,1.3,0.3c0.4,0.2,0.7,0.5,0.9,0.9l0,0v-0.9h1.9v6.8
				C142.9,22.8,142.8,23.2,142.7,23.5z M140,21.1c0.2-0.1,0.4-0.3,0.5-0.4c0.1-0.2,0.2-0.4,0.3-0.6c0.1-0.2,0.1-0.5,0.1-0.8
				c0-0.3,0-0.6-0.1-0.9c-0.1-0.3-0.1-0.5-0.3-0.7c-0.1-0.2-0.3-0.4-0.5-0.5c-0.3-0.1-0.5-0.2-0.8-0.2c-0.3,0-0.5,0-0.7,0.2
				c-0.2,0.1-0.4,0.3-0.5,0.5c-0.1,0.2-0.2,0.4-0.3,0.6c-0.1,0.3-0.1,0.5-0.1,0.8c0,0.3,0,0.5,0.1,0.8c0,0.2,0.1,0.5,0.3,0.7
				c0.1,0.2,0.3,0.4,0.5,0.5c0.2,0.1,0.5,0.2,0.8,0.2C139.5,21.3,139.7,21.2,140,21.1z"/>
			<path class="st0" d="M143.4,14.6v-1.6h2v1.6L143.4,14.6z M145.4,15.7V23h-2v-7.3H145.4z"/>
			<path class="st0" d="M150.5,15.7V17h-1.5v3.6c0,0.2,0,0.5,0.2,0.7c0.2,0.1,0.4,0.2,0.6,0.2h0.3l0.3,0V23c-0.2,0-0.4,0-0.6,0.1
				h-0.6c-0.3,0-0.6,0-0.9-0.1c-0.3,0-0.5-0.1-0.7-0.2c-0.2-0.1-0.4-0.3-0.5-0.5c-0.1-0.3-0.2-0.6-0.2-0.9V17h-1.2v-1.3h1.2v-2.2h2
				v2.2H150.5z"/>
			<path class="st0" d="M150.9,17.9c0-0.4,0.1-0.8,0.4-1.2c0.2-0.3,0.5-0.6,0.8-0.8c0.3-0.2,0.7-0.3,1.1-0.4
				c0.4-0.1,0.8-0.1,1.2-0.1c0.4,0,0.7,0,1.1,0.1c0.4,0,0.7,0.2,1,0.3c0.3,0.1,0.6,0.4,0.8,0.6c0.2,0.3,0.3,0.7,0.3,1.1v3.8
				c0,0.3,0,0.6,0.1,0.9c0,0.2,0.1,0.5,0.2,0.7h-2c0-0.1-0.1-0.2-0.1-0.3c0-0.1,0-0.2-0.1-0.4c-0.3,0.3-0.7,0.6-1.1,0.7
				c-0.4,0.1-0.9,0.2-1.3,0.2c-0.3,0-0.7,0-1-0.1c-0.3-0.1-0.6-0.2-0.8-0.4c-0.2-0.2-0.4-0.4-0.5-0.6c-0.1-0.3-0.2-0.6-0.2-1
				c0-0.4,0.1-0.7,0.2-1c0.1-0.3,0.3-0.5,0.6-0.6c0.2-0.2,0.5-0.3,0.8-0.4c0.3-0.1,0.6-0.1,0.9-0.2c0.3-0.1,0.6-0.1,0.9-0.1
				c0.3,0,0.5-0.1,0.8-0.1c0.2,0,0.4-0.1,0.5-0.2c0.1-0.1,0.2-0.3,0.2-0.5c0-0.2,0-0.4-0.1-0.5c-0.1-0.1-0.2-0.2-0.3-0.3
				c-0.1-0.1-0.3-0.1-0.4-0.1c-0.2,0-0.3,0-0.5,0c-0.3,0-0.7,0.1-0.9,0.3c-0.2,0.2-0.4,0.5-0.4,0.8L150.9,17.9z M155.5,19.4
				c-0.1,0.1-0.2,0.1-0.3,0.2c-0.1,0-0.3,0.1-0.4,0.1l-0.5,0.1c-0.2,0-0.3,0-0.5,0.1c-0.2,0-0.3,0.1-0.4,0.1c-0.1,0-0.3,0.1-0.4,0.2
				c-0.1,0.1-0.2,0.2-0.3,0.3c-0.1,0.1-0.1,0.3-0.1,0.5c0,0.2,0,0.3,0.1,0.4c0.1,0.1,0.2,0.2,0.3,0.3c0.1,0.1,0.3,0.1,0.4,0.1
				c0.2,0,0.3,0,0.5,0c0.3,0,0.6-0.1,0.9-0.2c0.2-0.1,0.4-0.3,0.5-0.5c0.1-0.2,0.2-0.4,0.2-0.6c0-0.2,0-0.3,0-0.4L155.5,19.4z"/>
			<path class="st0" d="M160.3,12.9v10h-2v-10H160.3z"/>
			<path class="st0" d="M125.6,25.7v10h-2.2v-10H125.6z"/>
			<path class="st0" d="M128.3,28.5v1h0c0.2-0.4,0.6-0.7,1-0.9c0.4-0.2,0.8-0.3,1.2-0.3c0.4,0,0.9,0.1,1.3,0.2
				c0.3,0.1,0.6,0.3,0.8,0.6c0.2,0.3,0.3,0.6,0.4,0.9c0.1,0.4,0.1,0.8,0.1,1.2v4.5h-1.9v-4.1c0-0.5-0.1-0.9-0.3-1.3
				c-0.2-0.3-0.6-0.5-1-0.4c-0.5,0-0.9,0.1-1.2,0.5c-0.3,0.5-0.4,1-0.4,1.6v3.8h-2v-7.3H128.3z"/>
			<path class="st0" d="M136,28.5v1h0c0.2-0.4,0.6-0.7,1-0.9c0.4-0.2,0.8-0.3,1.2-0.3c0.4,0,0.9,0.1,1.3,0.2
				c0.3,0.1,0.6,0.3,0.8,0.6c0.2,0.3,0.3,0.6,0.4,0.9c0.1,0.4,0.1,0.8,0.1,1.2v4.5h-2v-4.1c0-0.5-0.1-0.9-0.3-1.3
				c-0.2-0.3-0.6-0.5-1-0.4c-0.5,0-0.9,0.1-1.2,0.5c-0.3,0.5-0.4,1-0.4,1.6v3.8h-2v-7.3H136z"/>
			<path class="st0" d="M141.7,30.5c0.3-0.9,1-1.6,1.9-2c0.5-0.2,1-0.3,1.5-0.3c0.5,0,1.1,0.1,1.6,0.3c0.5,0.2,0.9,0.4,1.2,0.8
				c0.3,0.3,0.6,0.8,0.8,1.2c0.2,0.5,0.3,1,0.3,1.6c0,0.5-0.1,1.1-0.3,1.6c-0.2,0.4-0.4,0.9-0.8,1.2c-0.3,0.3-0.7,0.6-1.2,0.8
				c-0.5,0.2-1,0.3-1.6,0.3c-0.5,0-1-0.1-1.5-0.3c-0.4-0.2-0.8-0.4-1.2-0.8c-0.3-0.3-0.6-0.8-0.8-1.2c-0.2-0.5-0.3-1-0.3-1.6
				C141.5,31.6,141.5,31,141.7,30.5z M143.5,33c0.1,0.3,0.2,0.5,0.3,0.7c0.1,0.2,0.3,0.4,0.5,0.5c0.3,0.1,0.5,0.2,0.8,0.2
				c0.3,0,0.6-0.1,0.9-0.2c0.2-0.1,0.4-0.3,0.5-0.5c0.1-0.2,0.2-0.5,0.3-0.7c0.1-0.3,0.1-0.6,0.1-0.9c0-0.3,0-0.6-0.1-0.9
				c-0.1-0.3-0.1-0.5-0.3-0.7c-0.1-0.2-0.3-0.4-0.5-0.5c-0.3-0.1-0.6-0.2-0.9-0.2c-0.3,0-0.6,0.1-0.8,0.2c-0.2,0.1-0.4,0.3-0.5,0.5
				c-0.1,0.2-0.2,0.5-0.3,0.7c-0.1,0.3-0.1,0.6-0.1,0.9C143.5,32.4,143.5,32.7,143.5,33z"/>
			<path class="st0" d="M151.2,35.7l-2.5-7.3h2.1l1.5,5h0l1.5-5h2l-2.5,7.3H151.2z"/>
			<path class="st0" d="M155.9,30.7c0-0.8,0.4-1.5,1.1-1.9c0.3-0.2,0.7-0.3,1.1-0.4c0.4-0.1,0.8-0.1,1.2-0.1c0.4,0,0.7,0,1.1,0.1
				c0.4,0,0.7,0.1,1,0.3c0.3,0.1,0.6,0.4,0.8,0.6c0.2,0.3,0.3,0.7,0.3,1.1v3.8c0,0.3,0,0.6,0.1,0.9c0,0.2,0.1,0.4,0.2,0.6h-2
				c0-0.1-0.1-0.2-0.1-0.3c0-0.1,0-0.2,0-0.4c-0.3,0.3-0.7,0.6-1.1,0.7c-0.4,0.1-0.9,0.2-1.3,0.2c-0.3,0-0.7,0-1-0.1
				c-0.3-0.1-0.6-0.2-0.8-0.4c-0.2-0.2-0.4-0.4-0.5-0.7c-0.1-0.3-0.2-0.6-0.2-1c0-0.4,0.1-0.7,0.2-1c0.1-0.3,0.3-0.5,0.6-0.6
				c0.2-0.2,0.5-0.3,0.8-0.4c0.3-0.1,0.6-0.1,0.9-0.2l0.9-0.1c0.3,0,0.5-0.1,0.8-0.1c0.2,0,0.4-0.1,0.5-0.3c0.1-0.1,0.2-0.3,0.2-0.5
				c0-0.2,0-0.4-0.1-0.5c-0.1-0.1-0.2-0.2-0.3-0.3c-0.1-0.1-0.3-0.1-0.4-0.1c-0.2,0-0.3,0-0.5,0c-0.3,0-0.7,0.1-0.9,0.3
				c-0.2,0.2-0.4,0.5-0.4,0.8L155.9,30.7z M160.6,32.2c-0.1,0.1-0.2,0.1-0.3,0.2c-0.1,0-0.3,0.1-0.4,0.1c-0.1,0-0.3,0.1-0.5,0.1
				l-0.5,0.1c-0.2,0-0.3,0.1-0.4,0.1c-0.1,0-0.3,0.1-0.4,0.2c-0.1,0.1-0.2,0.2-0.3,0.3c-0.1,0.3-0.1,0.6,0,0.9
				c0.1,0.1,0.2,0.2,0.3,0.3c0.1,0.1,0.3,0.1,0.4,0.1c0.2,0,0.3,0,0.5,0c0.3,0,0.6-0.1,0.9-0.2c0.2-0.1,0.4-0.3,0.5-0.5
				c0.1-0.2,0.2-0.4,0.2-0.6c0-0.1,0-0.3,0-0.4V32.2z"/>
			<path class="st0" d="M167.4,28.5v1.3h-1.4v3.6c-0.1,0.3,0,0.7,0.3,0.8c0.2,0.1,0.3,0.1,0.5,0h0.3c0.1,0,0.2,0,0.3,0v1.5
				c-0.2,0-0.4,0.1-0.6,0.1h-0.6c-0.3,0-0.6,0-0.9-0.1c-0.3,0-0.5-0.1-0.7-0.2c-0.2-0.1-0.4-0.3-0.5-0.5c-0.1-0.3-0.2-0.6-0.2-0.9
				v-4.3h-1.2v-1.3h1.2v-2.2h2v2.2H167.4z"/>
			<path class="st0" d="M167.9,27.3v-1.6h2v1.6H167.9z M169.9,28.5v7.3h-2v-7.3H169.9z"/>
			<path class="st0" d="M170.6,30.5c0.2-0.5,0.4-0.9,0.8-1.2c0.3-0.3,0.7-0.6,1.2-0.8c0.5-0.2,1-0.3,1.5-0.3c0.5,0,1.1,0.1,1.6,0.3
				c0.9,0.4,1.6,1.1,1.9,2c0.2,0.5,0.3,1,0.3,1.6c0,0.5-0.1,1.1-0.3,1.6c-0.2,0.4-0.4,0.9-0.7,1.2c-0.3,0.3-0.7,0.6-1.2,0.8
				c-0.5,0.2-1,0.3-1.6,0.3c-0.5,0-1.1-0.1-1.5-0.3c-0.4-0.2-0.8-0.4-1.2-0.8c-0.3-0.3-0.6-0.8-0.8-1.2c-0.2-0.5-0.3-1-0.3-1.6
				C170.4,31.6,170.4,31,170.6,30.5z M172.4,33c0.1,0.3,0.2,0.5,0.3,0.7c0.1,0.2,0.3,0.4,0.5,0.5c0.3,0.1,0.6,0.2,0.8,0.2
				c0.3,0,0.6-0.1,0.8-0.2c0.2-0.1,0.4-0.3,0.6-0.5c0.1-0.2,0.2-0.5,0.3-0.7c0.1-0.3,0.1-0.6,0.1-0.9c0-0.3,0-0.6-0.1-0.9
				c0-0.3-0.1-0.5-0.3-0.7c-0.1-0.2-0.3-0.4-0.6-0.5c-0.3-0.1-0.6-0.2-0.8-0.2c-0.3,0-0.6,0.1-0.8,0.2c-0.2,0.1-0.4,0.3-0.5,0.5
				c-0.1,0.2-0.2,0.5-0.3,0.7c-0.1,0.3-0.1,0.6-0.1,0.9C172.3,32.4,172.4,32.7,172.4,33L172.4,33z"/>
			<path class="st0" d="M180.4,28.5v1h0c0.2-0.4,0.6-0.7,1-0.9c0.4-0.2,0.8-0.3,1.2-0.3c0.4,0,0.9,0.1,1.3,0.2
				c0.3,0.1,0.6,0.3,0.8,0.6c0.2,0.3,0.3,0.6,0.4,0.9c0.1,0.4,0.1,0.8,0.1,1.2v4.5h-1.9v-4.1c0-0.5-0.1-0.9-0.3-1.3
				c-0.2-0.3-0.6-0.5-1-0.4c-0.5,0-0.9,0.1-1.2,0.5c-0.3,0.5-0.4,1-0.4,1.6v3.8h-2v-7.3H180.4z"/>
			<path class="st0" d="M129.9,41.2c-0.1-0.2-0.3-0.4-0.5-0.6c-0.2-0.2-0.4-0.3-0.6-0.4c-0.2-0.1-0.5-0.1-0.8-0.1
				c-0.4,0-0.9,0.1-1.3,0.3c-0.3,0.2-0.6,0.5-0.8,0.8c-0.2,0.3-0.4,0.7-0.5,1.1c-0.1,0.4-0.1,0.9-0.1,1.3c0,0.4,0.1,0.8,0.1,1.2
				c0.1,0.4,0.3,0.7,0.5,1.1c0.2,0.3,0.5,0.6,0.8,0.8c0.4,0.2,0.8,0.3,1.3,0.3c0.6,0,1.2-0.2,1.6-0.6c0.4-0.5,0.6-1,0.7-1.6h2.1
				c0,0.6-0.2,1.2-0.5,1.7c-0.2,0.5-0.5,0.9-0.9,1.3c-0.4,0.4-0.8,0.6-1.3,0.8c-0.5,0.2-1.1,0.3-1.7,0.3c-0.7,0-1.4-0.1-2.1-0.4
				c-0.6-0.2-1.1-0.6-1.6-1.1c-0.4-0.5-0.8-1-1-1.7c-0.2-0.7-0.3-1.3-0.3-2c0-0.7,0.1-1.4,0.3-2.1c0.2-0.6,0.5-1.2,1-1.7
				c0.4-0.5,1-0.9,1.6-1.1c0.7-0.3,1.4-0.4,2.1-0.4c0.5,0,1.1,0.1,1.6,0.2c0.5,0.2,0.9,0.4,1.3,0.7c0.4,0.3,0.7,0.7,1,1.1
				c0.3,0.5,0.4,1,0.5,1.5h-2.1C130.1,41.6,130,41.4,129.9,41.2z"/>
			<path class="st0" d="M135.1,46.8c0.4,0.3,0.8,0.5,1.3,0.4c0.4,0,0.7-0.1,1-0.3c0.2-0.1,0.4-0.4,0.5-0.6h1.8
				c-0.2,0.8-0.7,1.4-1.3,1.9c-0.6,0.4-1.4,0.6-2.1,0.6c-0.5,0-1.1-0.1-1.5-0.3c-0.4-0.2-0.8-0.4-1.2-0.8c-0.3-0.3-0.6-0.8-0.7-1.2
				c-0.2-0.5-0.3-1-0.3-1.5c0-0.5,0.1-1,0.3-1.5c0.2-0.5,0.4-0.9,0.8-1.2c0.3-0.3,0.7-0.6,1.2-0.8c0.5-0.2,1-0.3,1.5-0.4
				c0.6,0,1.1,0.1,1.6,0.4c0.4,0.2,0.8,0.6,1.1,1c0.3,0.4,0.5,0.9,0.6,1.4c0.1,0.5,0.2,1.1,0.1,1.6h-5.3
				C134.5,45.9,134.7,46.4,135.1,46.8z M137.3,43c-0.3-0.3-0.7-0.4-1.1-0.4c-0.3,0-0.5,0-0.8,0.2c-0.2,0.1-0.4,0.2-0.5,0.4
				c-0.1,0.2-0.2,0.3-0.3,0.5c0,0.2-0.1,0.3-0.1,0.5h3.2C137.8,43.7,137.6,43.3,137.3,43z"/>
			<path class="st0" d="M142.2,41.3v1h0c0.2-0.4,0.6-0.7,1-0.9c0.4-0.2,0.8-0.3,1.2-0.3c0.4,0,0.9,0.1,1.3,0.2
				c0.3,0.1,0.6,0.3,0.8,0.6c0.2,0.3,0.3,0.6,0.4,0.9c0.1,0.4,0.1,0.8,0.1,1.2v4.5h-2v-4.1c0-0.5-0.1-0.9-0.3-1.3
				c-0.2-0.3-0.6-0.5-1-0.4c-0.4,0-0.9,0.1-1.2,0.5c-0.3,0.5-0.4,1-0.4,1.6v3.8h-2v-7.3H142.2z"/>
			<path class="st0" d="M151.9,41.3v1.3h-1.5v3.6c-0.1,0.4,0.1,0.7,0.5,0.8c0.1,0,0.3,0,0.4,0c0.1,0,0.2,0,0.3,0c0.1,0,0.2,0,0.3,0
				v1.5c-0.2,0-0.4,0-0.6,0.1h-0.6c-0.3,0-0.6,0-0.9-0.1c-0.3,0-0.5-0.1-0.7-0.3c-0.2-0.1-0.4-0.3-0.5-0.5c-0.1-0.3-0.2-0.6-0.2-0.9
				v-4.3h-1.2v-1.3h1.2v-2.2h2v2.2L151.9,41.3z"/>
			<path class="st0" d="M154.3,46.8c0.4,0.3,0.8,0.5,1.3,0.4c0.4,0,0.7-0.1,1-0.3c0.2-0.1,0.4-0.4,0.5-0.6h1.8
				c-0.2,0.8-0.7,1.4-1.3,1.9c-0.6,0.4-1.4,0.6-2.1,0.6c-0.5,0-1.1-0.1-1.5-0.3c-0.4-0.2-0.8-0.4-1.2-0.8c-0.3-0.3-0.6-0.8-0.7-1.2
				c-0.2-0.5-0.3-1.1-0.3-1.6c0-0.5,0.1-1,0.3-1.5c0.2-0.5,0.4-0.9,0.8-1.2c0.3-0.3,0.7-0.6,1.2-0.8c0.5-0.2,1-0.3,1.5-0.3
				c0.6,0,1.1,0.1,1.6,0.4c0.4,0.2,0.8,0.6,1.1,1c0.3,0.4,0.5,0.9,0.6,1.4c0.1,0.5,0.2,1.1,0.1,1.6h-5.2
				C153.8,45.9,154,46.4,154.3,46.8z M156.6,43c-0.3-0.3-0.7-0.4-1.1-0.4c-0.3,0-0.5,0-0.8,0.2c-0.2,0.1-0.4,0.2-0.5,0.4
				c-0.1,0.2-0.2,0.3-0.3,0.5c0,0.2-0.1,0.3-0.1,0.5h3.2C157,43.7,156.8,43.3,156.6,43z"/>
			<path class="st0" d="M161.5,41.3v1.3l0,0c0.1-0.2,0.2-0.4,0.4-0.6c0.2-0.2,0.3-0.4,0.5-0.5c0.2-0.1,0.4-0.2,0.6-0.3
				c0.2-0.1,0.5-0.1,0.7-0.1c0.1,0,0.3,0,0.4,0.1V43h-0.3h-0.4c-0.3,0-0.6,0.1-0.9,0.2c-0.2,0.1-0.5,0.3-0.6,0.5
				c-0.2,0.2-0.3,0.5-0.3,0.7c-0.1,0.3-0.1,0.6-0.1,0.9v3.3h-2v-7.3H161.5z"/>
		</g>
	</g>
	<g>
		<path class="st0" d="M4.6,29.8C4.9,30,5,30.1,5.2,30.4s0.2,0.5,0.2,0.8c0,0.3-0.1,0.6-0.2,0.8c-0.1,0.2-0.3,0.4-0.6,0.5
			c-0.2,0.1-0.5,0.2-0.8,0.2h-1c0,0,0,0,0,0v1.7c0,0.1,0,0.1-0.1,0.1H1.9c-0.1,0-0.1,0-0.1-0.1v-4.7c0-0.1,0-0.1,0.1-0.1h1.9
			C4.1,29.6,4.4,29.7,4.6,29.8z M4.2,31.7c0.1-0.1,0.2-0.3,0.2-0.5c0-0.2-0.1-0.4-0.2-0.5s-0.3-0.2-0.5-0.2H2.8c0,0,0,0,0,0v1.3
			c0,0,0,0,0,0h0.9C3.9,31.9,4.1,31.8,4.2,31.7z"/>
		<path class="st0" d="M8.9,34.4c-0.3-0.1-0.5-0.4-0.6-0.6C8.1,33.5,8,33.2,8,32.8v-1.5c0-0.3,0.1-0.6,0.2-0.9
			c0.2-0.3,0.4-0.5,0.6-0.6c0.3-0.1,0.6-0.2,1-0.2c0.4,0,0.7,0.1,1,0.2s0.5,0.4,0.6,0.6c0.2,0.3,0.2,0.6,0.2,0.9v1.5
			c0,0.3-0.1,0.7-0.2,0.9c-0.2,0.3-0.4,0.5-0.6,0.6s-0.6,0.2-1,0.2C9.5,34.6,9.1,34.5,8.9,34.4z M10.4,33.5c0.2-0.2,0.2-0.4,0.2-0.6
			v-1.5c0-0.3-0.1-0.5-0.2-0.7c-0.2-0.2-0.4-0.2-0.6-0.2c-0.3,0-0.5,0.1-0.6,0.2C9,30.9,9,31.1,9,31.3v1.5c0,0.3,0.1,0.5,0.2,0.6
			c0.2,0.2,0.4,0.2,0.6,0.2C10.1,33.8,10.3,33.7,10.4,33.5z"/>
		<path class="st0" d="M15.2,34.4L14,29.8c0,0,0,0,0,0c0-0.1,0-0.1,0.1-0.1h0.8c0.1,0,0.1,0,0.1,0.1l0.7,2.8c0,0,0,0,0,0
			c0,0,0,0,0,0l0.6-2.8c0-0.1,0.1-0.1,0.1-0.1h0.8c0.1,0,0.1,0,0.1,0.1l0.7,2.8c0,0,0,0,0,0c0,0,0,0,0,0l0.6-2.8
			c0-0.1,0.1-0.1,0.1-0.1h0.8c0,0,0.1,0,0.1,0c0,0,0,0.1,0,0.1l-1.1,4.7c0,0.1-0.1,0.1-0.1,0.1h-0.8c-0.1,0-0.1,0-0.1-0.1l-0.7-3
			c0,0,0,0,0,0c0,0,0,0,0,0l-0.6,3c0,0.1-0.1,0.1-0.1,0.1h-0.7C15.3,34.5,15.3,34.5,15.2,34.4z"/>
		<path class="st0" d="M25.7,30.5h-2.3c0,0,0,0,0,0v1.1c0,0,0,0,0,0h1.5c0.1,0,0.1,0,0.1,0.1v0.6c0,0.1,0,0.1-0.1,0.1h-1.5
			c0,0,0,0,0,0v1.1c0,0,0,0,0,0h2.3c0.1,0,0.1,0,0.1,0.1v0.6c0,0.1,0,0.1-0.1,0.1h-3.2c-0.1,0-0.1,0-0.1-0.1v-4.7
			c0-0.1,0-0.1,0.1-0.1h3.2c0.1,0,0.1,0,0.1,0.1v0.6C25.8,30.5,25.8,30.5,25.7,30.5z"/>
		<path class="st0" d="M31.1,34.5l-0.9-1.9c0,0,0,0,0,0h-0.6c0,0,0,0,0,0v1.9c0,0.1,0,0.1-0.1,0.1h-0.7c-0.1,0-0.1,0-0.1-0.1v-4.7
			c0-0.1,0-0.1,0.1-0.1h2c0.3,0,0.6,0.1,0.8,0.2c0.2,0.1,0.4,0.3,0.5,0.5c0.1,0.2,0.2,0.5,0.2,0.8c0,0.3-0.1,0.6-0.2,0.8
			c-0.2,0.2-0.4,0.4-0.7,0.5c0,0,0,0,0,0c0,0,0,0,0,0l0.9,1.9c0,0,0,0,0,0.1c0,0,0,0,0,0.1c0,0,0,0-0.1,0h-0.8
			C31.2,34.5,31.2,34.5,31.1,34.5z M29.6,30.5v1.2c0,0,0,0,0,0h0.9c0.2,0,0.4-0.1,0.5-0.2c0.1-0.1,0.2-0.3,0.2-0.5
			c0-0.2-0.1-0.3-0.2-0.5c-0.1-0.1-0.3-0.2-0.5-0.2L29.6,30.5C29.6,30.5,29.6,30.5,29.6,30.5z"/>
		<path class="st0" d="M38.2,30.5H36c0,0,0,0,0,0v1.1c0,0,0,0,0,0h1.5c0.1,0,0.1,0,0.1,0.1v0.6c0,0.1,0,0.1-0.1,0.1H36c0,0,0,0,0,0
			v1.1c0,0,0,0,0,0h2.3c0.1,0,0.1,0,0.1,0.1v0.6c0,0.1,0,0.1-0.1,0.1h-3.2c-0.1,0-0.1,0-0.1-0.1v-4.7c0-0.1,0-0.1,0.1-0.1h3.2
			c0.1,0,0.1,0,0.1,0.1v0.6C38.4,30.5,38.3,30.5,38.2,30.5z"/>
		<path class="st0" d="M41.1,34.4v-4.7c0-0.1,0-0.1,0.1-0.1H43c0.3,0,0.7,0.1,0.9,0.2c0.3,0.1,0.5,0.3,0.6,0.5
			c0.1,0.2,0.2,0.5,0.2,0.8v1.9c0,0.3-0.1,0.6-0.2,0.8c-0.1,0.2-0.3,0.4-0.6,0.5c-0.3,0.1-0.6,0.2-0.9,0.2h-1.7
			C41.2,34.5,41.1,34.5,41.1,34.4z M42.2,33.7H43c0.2,0,0.4-0.1,0.5-0.2c0.1-0.1,0.2-0.3,0.2-0.6v-1.6c0-0.2-0.1-0.4-0.2-0.6
			c-0.1-0.1-0.3-0.2-0.5-0.2h-0.8c0,0,0,0,0,0L42.2,33.7C42.1,33.7,42.1,33.7,42.2,33.7z"/>
		<path class="st0" d="M53.9,32C53.9,32,53.9,32,53.9,32c0.5,0.3,0.7,0.6,0.7,1.2c0,0.5-0.2,0.8-0.5,1c-0.3,0.2-0.7,0.3-1.2,0.3
			h-1.8c-0.1,0-0.1,0-0.1-0.1v-4.7c0-0.1,0-0.1,0.1-0.1h1.7c1.1,0,1.7,0.4,1.7,1.3C54.5,31.5,54.3,31.8,53.9,32
			C53.9,32,53.9,32,53.9,32z M52,30.5v1.1c0,0,0,0,0,0h0.8c0.2,0,0.4-0.1,0.5-0.2c0.1-0.1,0.2-0.2,0.2-0.4c0-0.2-0.1-0.3-0.2-0.4
			c-0.1-0.1-0.3-0.2-0.5-0.2L52,30.5C52,30.5,52,30.5,52,30.5z M53.4,33.5c0.1-0.1,0.2-0.3,0.2-0.5c0-0.2-0.1-0.3-0.2-0.5
			c-0.1-0.1-0.3-0.2-0.5-0.2h-0.9c0,0,0,0,0,0v1.1c0,0,0,0,0,0h0.9C53.2,33.7,53.3,33.6,53.4,33.5z"/>
		<path class="st0" d="M58.4,34.4v-1.7l0-0.1L57,29.8c0,0,0,0,0-0.1c0,0,0,0,0-0.1c0,0,0,0,0.1,0h0.8c0.1,0,0.1,0,0.1,0.1l0.9,1.8
			c0,0,0,0,0,0c0,0,0,0,0,0l0.9-1.8c0-0.1,0.1-0.1,0.1-0.1h0.8c0.1,0,0.1,0,0.1,0.1c0,0,0,0,0,0.1l-1.4,2.8l0,0.1v1.7
			c0,0.1,0,0.1-0.1,0.1h-0.7C58.5,34.5,58.4,34.5,58.4,34.4z"/>
	</g>
</g>
</svg>
