<svg width="15" height="15" viewBox="0 0 15 15" version="1.1" xmlns="http://www.w3.org/2000/svg" xmlns:xlink="http://www.w3.org/1999/xlink">
<title>black</title>
<desc>Created using Figma</desc>
<g id="Canvas" transform="translate(-17094 -625)">
<rect x="17094" y="625" width="15" height="15" fill="#FFFFFF"/>
<clipPath id="clip-0" clip-rule="evenodd">
<path d="M 16702 -233L 17982 -233L 17982 3912L 16702 3912L 16702 -233Z" fill="#FFFFFF"/>
</clipPath>
<g id="1280_07_Speakers_02Speaker" clip-path="url(#clip-0)">
<path d="M 16702 -233L 17982 -233L 17982 3912L 16702 3912L 16702 -233Z" fill="#F9F9FB"/>
<g id="Group 2">
<g id="Rectangle 5" filter="url(#filter0_d)">
<use xlink:href="#path0_fill" transform="translate(16778 439)" fill="#FFFFFF"/>
</g>
<g id="tag/day/white">
<g id="ico/calendar/black">
<g id="009-calendar">
<g id="Shape">
<use xlink:href="#path1_fill" transform="translate(17102.9 633.889)" fill="#000D24"/>
</g>
<g id="Shape">
<use xlink:href="#path2_fill" transform="translate(17105.7 635)" fill="#000D24"/>
</g>
<g id="Shape">
<use xlink:href="#path3_fill" transform="translate(17095.7 630.556)" fill="#000D24"/>
</g>
<g id="Shape">
<use xlink:href="#path4_fill" transform="translate(17094 625)" fill="#000D24"/>
</g>
</g>
</g>
</g>
</g>
</g>
</g>
<defs>
<filter id="filter0_d" filterUnits="userSpaceOnUse" x="16748" y="417" width="1187" height="1545" color-interpolation-filters="sRGB">
<feFlood flood-opacity="0" result="BackgroundImageFix"/>
<feColorMatrix in="SourceAlpha" type="matrix" values="0 0 0 0 0 0 0 0 0 0 0 0 0 0 0 0 0 0 255 0"/>
<feOffset dx="0" dy="8"/>
<feGaussianBlur stdDeviation="15"/>
<feColorMatrix type="matrix" values="0 0 0 0 0 0 0 0 0 0 0 0 0 0 0 0 0 0 0.25 0"/>
<feBlend mode="normal" in2="BackgroundImageFix" result="effect1_dropShadow"/>
<feBlend mode="normal" in="SourceGraphic" in2="effect1_dropShadow" result="shape"/>
</filter>
<path id="path0_fill" fill-rule="evenodd" d="M 0 0L 1127 0L 1127 1485L 0 1485L 0 0Z"/>
<path id="path1_fill" fill-rule="evenodd" d="M 0 3.05554C 0 1.37067 1.37109 0 3.05469 0C 4.74023 0 6.11133 1.37067 6.11133 3.05554C 6.11133 4.74042 4.74023 6.11108 3.05469 6.11108C 1.37109 6.11108 0 4.74042 0 3.05554ZM 0.509766 3.0556C 0.509766 4.45959 1.65234 5.60187 3.05664 5.60187C 4.46094 5.60187 5.60156 4.45959 5.60156 3.0556C 5.60156 1.65155 4.46094 0.509277 3.05664 0.509277C 1.65234 0.509277 0.509766 1.65155 0.509766 3.0556Z"/>
<path id="path2_fill" d="M 1.94444 1.66667L 0.555556 1.66667L 0.555556 0.277778C 0.555556 0.124167 0.431389 0 0.277778 0C 0.124167 0 0 0.124167 0 0.277778L 0 1.94444C 0 2.09806 0.124167 2.22222 0.277778 2.22222L 1.94444 2.22222C 2.09806 2.22222 2.22222 2.09806 2.22222 1.94444C 2.22222 1.79083 2.09806 1.66667 1.94444 1.66667Z"/>
<path id="path3_fill" fill-rule="evenodd" d="M 5.26367 0L 4.73633 0L 2.89453 0L 2.36914 0L 0 0L 0 2.24139L 0 2.73944L 0 4.48279L 0 4.98083L 0 7.22223L 2.36914 7.22223L 2.89453 7.22223L 5.26367 7.22223L 5.26367 4.98083L 5.26367 4.48279L 5.26367 2.73944L 7.10547 2.73944L 7.63086 2.73944L 10 2.73944L 10 0L 7.63086 0L 7.10547 0L 5.26367 0ZM 7.63086 0.498108L 9.47266 0.498108L 9.47266 2.24139L 7.63086 2.24139L 7.63086 0.498108ZM 4.73633 0.498108L 2.89453 0.498108L 2.89453 2.24139L 4.73633 2.24139L 4.73633 0.498108ZM 0.525391 0.498108L 2.36719 0.498108L 2.36719 2.24139L 0.525391 2.24139L 0.525391 0.498108ZM 2.36719 2.73944L 0.525391 2.73944L 0.525391 4.48273L 2.36719 4.48273L 2.36719 2.73944ZM 2.36719 6.72412L 0.525391 6.72412L 0.525391 4.98083L 2.36719 4.98083L 2.36719 6.72412ZM 2.89453 6.72412L 4.73633 6.72412L 4.73633 4.98083L 2.89453 4.98083L 2.89453 6.72412ZM 4.73633 4.48273L 2.89453 4.48273L 2.89453 2.73944L 4.73633 2.73944L 4.73633 4.48273ZM 5.26367 2.24139L 7.10547 2.24139L 7.10547 0.498108L 5.26367 0.498108L 5.26367 2.24139Z"/>
<path id="path4_fill" fill-rule="evenodd" d="M 0.513672 14.4737L 8.46094 14.4737C 8.60352 14.4737 8.71875 14.5913 8.71875 14.7368C 8.71875 14.8824 8.60352 15 8.46094 15L 0.255859 15C 0.115234 15 0 14.8824 0 14.7368L 0 3.94739L 0 1.3158C 0 1.17029 0.115234 1.05261 0.255859 1.05261L 1.53906 1.05261L 1.53906 0.263184C 1.53906 0.117615 1.65234 0 1.79492 0L 3.58984 0C 3.73242 0 3.8457 0.117615 3.8457 0.263184L 3.8457 1.05261L 9.48633 1.05261L 9.48633 0.263184C 9.48633 0.117615 9.60156 0 9.74414 0L 11.5391 0C 11.6797 0 11.7949 0.117615 11.7949 0.263184L 11.7949 1.05261L 13.0762 1.05261C 13.2188 1.05261 13.334 1.17029 13.334 1.3158L 13.334 3.94739L 13.334 7.63159C 13.334 7.7771 13.2188 7.89471 13.0762 7.89471C 12.9355 7.89471 12.8203 7.7771 12.8203 7.63159L 12.8203 4.21051L 0.513672 4.21051L 0.513672 14.4737ZM 11.2812 0.526306L 10 0.526306L 10 1.3158L 10 2.10522L 11.2812 2.10522L 11.2812 1.3158L 11.2812 0.526306ZM 2.05078 0.526306L 3.33203 0.526306L 3.33203 1.3158L 3.33203 2.10522L 2.05078 2.10522L 2.05078 1.3158L 2.05078 0.526306ZM 1.53906 1.57892L 0.513672 1.57892L 0.513672 3.6842L 12.8223 3.6842L 12.8223 1.57892L 11.7949 1.57892L 11.7949 2.36841C 11.7949 2.51392 11.6816 2.63153 11.5391 2.63153L 9.74414 2.63153C 9.60352 2.63153 9.48828 2.51392 9.48828 2.36841L 9.48828 1.57892L 3.84766 1.57892L 3.84766 2.36841C 3.84766 2.51392 3.73242 2.63153 3.58984 2.63153L 1.79492 2.63153C 1.6543 2.63153 1.53906 2.51392 1.53906 2.36841L 1.53906 1.57892Z"/>
</defs>
</svg>
