<svg width="30" height="30" viewBox="0 0 30 30" version="1.1" xmlns="http://www.w3.org/2000/svg" xmlns:xlink="http://www.w3.org/1999/xlink">
<title>facebook copy 4</title>
<desc>Created using Figma</desc>
<g id="Canvas" transform="translate(-19340 -2594)">
<g id="ico/social/facebook copy 4">
<g id="social_instagram">
<g id="Shape">
<use xlink:href="#path0_fill" transform="translate(19340 2594.48)" fill="#A2A7AF"/>
</g>
<g id="Shape">
<use xlink:href="#path1_fill" transform="translate(19347.5 2601.86)" fill="#FFFFFF"/>
</g>
</g>
</g>
</g>
<defs>
<path id="path0_fill" d="M 15 29.5161C 23.2843 29.5161 30 22.9087 30 14.7581C 30 6.60741 23.2843 4.99084e-16 15 0C 6.71573 -4.99084e-16 1.01453e-15 6.60741 0 14.7581C -1.01453e-15 22.9087 6.71573 29.5161 15 29.5161"/>
<path id="path1_fill" fill-rule="evenodd" d="M 2.89453 0L 12.1055 0C 13.7051 0.00488281 15 1.28223 15 2.8562L 15 11.9192C 15 13.4919 13.7051 14.7668 12.1055 14.7668L 2.89453 14.7668C 1.29492 14.7668 0 13.4919 0 11.9192L 0 2.8562C 0 1.28223 1.29492 0.00488281 2.89453 0ZM 13.2695 1.73633L 12.9336 1.73633L 10.7285 1.71021L 10.7285 4.24512L 13.2695 4.24512L 13.2695 1.73633ZM 5.35547 5.90308C 6.12891 4.86621 7.55664 4.53955 8.71484 5.13428C 9.87305 5.72925 10.418 7.06714 9.99609 8.28442C 9.57422 9.50146 8.3125 10.2334 7.02539 10.0073C 5.73828 9.78101 4.8125 8.66455 4.84375 7.37891C 4.85156 6.83521 5.0293 6.30713 5.35547 5.86841L 5.35547 5.90308ZM 12.1055 13.3865C 12.8965 13.3865 13.5391 12.7583 13.543 11.9802L 13.543 5.90332L 11.3027 5.90332C 11.9961 7.58936 11.459 9.52393 9.98828 10.6277C 8.51758 11.7312 6.48047 11.7312 5.00977 10.6277C 3.54102 9.52393 3.00195 7.58936 3.69531 5.90332L 1.45508 5.90332L 1.45508 11.9802C 1.45898 12.7583 2.10156 13.3865 2.89258 13.3865L 12.1055 13.3865Z"/>
</defs>
</svg>
