<?xml version="1.0" encoding="UTF-8"?>
<svg width="34px" height="34px" viewBox="0 0 34 34" version="1.1" xmlns="http://www.w3.org/2000/svg" xmlns:xlink="http://www.w3.org/1999/xlink">
    <!-- Generator: Sketch 53.1 (72631) - https://sketchapp.com -->
    <title>ico/social/instagram</title>
    <desc>Created with Sketch.</desc>
    <g id="ico/social/instagram" stroke="none" stroke-width="1" fill="none" fill-rule="evenodd">
        <g id="social_instagram" fill-rule="nonzero">
            <path d="M17,34 C26.3888407,34 34,26.3888407 34,17 C34,7.61115925 26.3888407,5.74900688e-16 17,0 C7.61115925,-5.74900688e-16 1.14980138e-15,7.61115925 0,17 C-1.14980138e-15,26.3888407 7.61115925,34 17,34" id="Shape" fill="#FF3700"></path>
            <path d="M22.23,8.5 L11.79,8.5 C9.97688964,8.505511 8.50999162,9.97688126 8.51,11.79 L8.51,22.23 C8.51,24.041494 9.97850602,25.51 11.79,25.51 L22.23,25.51 C24.041494,25.51 25.51,24.041494 25.51,22.23 L25.51,11.79 C25.5100084,9.97688126 24.0431104,8.505511 22.23,8.5 Z M23.17,10.5 L23.55,10.5 L23.55,13.39 L20.67,13.39 L20.67,10.47 L23.17,10.5 Z M14.58,15.3 C15.4561565,14.1054312 17.0730991,13.7292534 18.3865694,14.4144109 C19.7000397,15.0995684 20.3167348,16.6408991 19.838379,18.0429764 C19.3600233,19.4450536 17.9298544,20.2880425 16.4715082,20.0275214 C15.0131619,19.7670004 13.9633224,18.4809793 14,17 C14.0069468,16.3736735 14.2097615,15.7652293 14.58,15.26 L14.58,15.3 Z M23.86,22.3 C23.854501,23.1963164 23.1263333,23.9200169 22.23,23.92 L11.79,23.92 C10.8936667,23.9200169 10.165499,23.1963164 10.16,22.3 L10.16,15.3 L12.7,15.3 C11.9134495,17.2422736 12.5231813,19.470687 14.1890095,20.7419481 C15.8548378,22.0132092 18.1651622,22.0132092 19.8309905,20.7419481 C21.4968187,19.470687 22.1065505,17.2422736 21.32,15.3 L23.86,15.3 L23.86,22.3 Z" id="Shape" fill="#FFFFFF"></path>
        </g>
    </g>
</svg>