<?xml version="1.0" encoding="UTF-8" standalone="no"?>
<svg width="30px" height="30px" viewBox="0 0 30 30" version="1.1" xmlns="http://www.w3.org/2000/svg" xmlns:xlink="http://www.w3.org/1999/xlink">
    <!-- Generator: Sketch 48.2 (47327) - http://www.bohemiancoding.com/sketch -->
    <title>instagram</title>
    <desc>Created with Sketch.</desc>
    <defs></defs>
    <g id="navigation/footer/no_newsletter" stroke="none" stroke-width="1" fill="none" fill-rule="evenodd" transform="translate(-1173.000000, -88.000000)">
        <g id="Footer" transform="translate(0.000000, -3.000000)">
            <g id="social" transform="translate(1095.000000, 59.000000)">
                <g id="ico/social/instagram" transform="translate(78.000000, 32.000000)">
                    <g id="social_instagram">
                        <path d="M15,30 C23.2842712,30 30,23.2842712 30,15 C30,6.71572875 23.2842712,5.07265313e-16 15,0 C6.71572875,-5.07265313e-16 1.01453063e-15,6.71572875 0,15 C-1.01453063e-15,23.2842712 6.71572875,30 15,30" id="Shape" fill="#D97DA6" fill-rule="nonzero"></path>
                        <path d="M19.6147059,7.5 L10.4029412,7.5 C8.80313792,7.50486265 7.50881614,8.80313053 7.50882353,10.4029412 L7.50882353,19.6147059 C7.50882353,21.2130829 8.80456414,22.5088235 10.4029412,22.5088235 L19.6147059,22.5088235 C21.2130829,22.5088235 22.5088235,21.2130829 22.5088235,19.6147059 L22.5088235,10.4029412 C22.5088309,8.80313053 21.2145091,7.50486265 19.6147059,7.5 Z M20.4441176,9.26470588 L20.7794118,9.26470588 L20.7794118,11.8147059 L18.2382353,11.8147059 L18.2382353,9.23823529 L20.4441176,9.26470588 Z M12.8647059,13.5 C13.6377851,12.4459687 15.0644992,12.1140471 16.2234436,12.7185979 C17.3823879,13.3231486 17.9265307,14.6831463 17.5044521,15.9202733 C17.0823735,17.1574003 15.8204597,17.901214 14.5336837,17.6713424 C13.2469076,17.4414709 12.3205786,16.3067464 12.3529412,15 C12.3590707,14.4473589 12.5380248,13.9104964 12.8647059,13.4647059 L12.8647059,13.5 Z M21.0529412,19.6764706 C21.0480891,20.467338 20.4055882,21.1058972 19.6147059,21.1058824 L10.4029412,21.1058824 C9.61205884,21.1058972 8.96955792,20.467338 8.96470588,19.6764706 L8.96470588,13.5 L11.2058824,13.5 C10.5118672,15.2137708 11.0498659,17.180018 12.5197143,18.3017189 C13.9895627,19.4234199 16.0280843,19.4234199 17.4979328,18.3017189 C18.9677812,17.180018 19.5057798,15.2137708 18.8117647,13.5 L21.0529412,13.5 L21.0529412,19.6764706 Z" id="Shape" fill="#FFFFFF" fill-rule="nonzero"></path>
                    </g>
                </g>
            </g>
        </g>
    </g>
</svg>