<?xml version="1.0" encoding="UTF-8"?>
<svg width="34px" height="34px" viewBox="0 0 34 34" version="1.1" xmlns="http://www.w3.org/2000/svg" xmlns:xlink="http://www.w3.org/1999/xlink">
    <!-- Generator: Sketch 53.1 (72631) - https://sketchapp.com -->
    <title>ico/social/linkedin</title>
    <desc>Created with Sketch.</desc>
    <g id="ico/social/linkedin" stroke="none" stroke-width="1" fill="none" fill-rule="evenodd">
        <g id="social_linkedin" fill-rule="nonzero">
            <path d="M17,34 C26.3888407,34 34,26.3888407 34,17 C34,7.61115925 26.3888407,5.74900688e-16 17,0 C7.61115925,-5.74900688e-16 1.14980138e-15,7.61115925 0,17 C-1.14980138e-15,26.3888407 7.61115925,34 17,34" id="Shape" fill="#FF3700"></path>
            <path d="M12.25,24.12 L8.93,24.12 L8.93,13.51 L12.25,13.51 L12.25,24.12 Z M10.51,12.18 L10.51,12.18 C9.99666232,12.2248085 9.48805744,12.0523094 9.10789412,11.70446 C8.72773081,11.3566105 8.51084856,10.8652889 8.51,10.35 C8.51426793,9.83415946 8.73143628,9.34299477 9.11012749,8.9927054 C9.48881871,8.64241602 9.99539108,8.46412054 10.51,8.5 C11.2131732,8.42658958 11.8967,8.76036157 12.2712107,9.36001432 C12.6457214,9.95966707 12.6457214,10.7203329 12.2712107,11.3199857 C11.8967,11.9196384 11.2131732,12.2534104 10.51,12.18 L10.51,12.18 Z M25.51,24.12 L21.75,24.12 L21.75,18.63 C21.75,17.19 21.17,16.21 19.87,16.21 C19.0565663,16.2154758 18.3368612,16.7381667 18.08,17.51 C17.9996495,17.7925365 17.972522,18.0875482 18,18.38 L18,24.12 L14.27,24.12 C14.27,24.12 14.32,14.4 14.27,13.51 L18,13.51 L18,15.18 C18.6481894,13.979247 19.9514495,13.2823375 21.31,13.41 C23.66,13.41 25.51,14.94 25.51,18.22 L25.51,24.12 Z" id="Shape" fill="#FFFFFF"></path>
        </g>
    </g>
</svg>