<svg width="20" height="20" viewBox="0 0 20 20" version="1.1" xmlns="http://www.w3.org/2000/svg" xmlns:xlink="http://www.w3.org/1999/xlink">
<title>linkedin copy 2</title>
<desc>Created using Figma</desc>
<g id="Canvas" transform="translate(-16938 -129)">
<g id="ico/social/linkedin copy 2">
<g id="Oval">
<use xlink:href="#path0_fill" transform="translate(16940.4 132.529)" fill="#FFFFFF"/>
</g>
<g id="social_medium">
<g id="Shape">
<use xlink:href="#path1_fill" transform="translate(16938 129)" fill="#282828"/>
</g>
</g>
</g>
</g>
<defs>
<path id="path0_fill" fill-rule="evenodd" d="M 7.64706 15.2941C 11.8704 15.2941 15.2941 11.8704 15.2941 7.64706C 15.2941 3.4237 11.8704 0 7.64706 0C 3.4237 0 0 3.4237 0 7.64706C 0 11.8704 3.4237 15.2941 7.64706 15.2941Z"/>
<path id="path1_fill" fill-rule="evenodd" d="M 10 0C 4.47656 0 0 4.47716 0 10C 0 15.5228 4.47656 20 10 20C 15.5234 20 20 15.5228 20 10C 20 7.34784 18.9473 4.80429 17.0703 2.92892C 15.1953 1.05357 12.6523 0 10 0ZM 8.36523 14.1882C 8.36719 14.2967 8.30859 14.3973 8.21094 14.4471C 8.13086 14.4763 8.04492 14.4763 7.96484 14.4471C 7.96484 14.4471 7.32227 14.1353 6.61133 13.7765C 6.13867 13.5779 5.68359 13.3377 5.25195 13.0588C 5.2207 13.0235 5.19141 12.9839 5.16992 12.9412L 5.15039 12.9085C 5.10547 12.8337 5.10547 12.7309 5.10547 10.2375L 5.10547 9.59412L 5.10547 6.37646C 5.125 6.31056 5.17188 6.25662 5.23438 6.2294C 5.31836 6.21227 5.4043 6.22697 5.47656 6.27058C 5.67578 6.35294 8.3418 7.70587 8.34766 7.72353C 8.35352 7.74117 8.37695 14.1176 8.36523 14.1882ZM 8.7168 11.5588L 10.1758 12.2882L 11.6582 13L 8.7168 8.29411L 8.7168 9.92941L 8.7168 11.5588ZM 9.71875 9.21765C 9.71875 9.21765 10.1191 8.55295 10.6074 7.75883L 10.6992 7.61151C 11.4902 6.32945 11.541 6.2457 11.6172 6.21339L 11.6367 6.20589C 11.6816 6.19759 11.7266 6.19759 11.7715 6.20589L 11.8652 6.20589L 13.377 6.95883C 14.4062 7.47647 14.8828 7.71765 14.8828 7.72942C 14.8828 7.74118 14.6777 8.09412 13.2539 10.4059L 12.2305 12.0588C 12.0254 12.4 11.8477 12.6765 11.8418 12.6765C 11.8359 12.6765 9.71875 9.22942 9.71875 9.21765ZM 14.9004 14.2471L 14.9004 11.8941L 14.9043 11.0565C 14.9062 10.0723 14.9102 9.22453 14.9238 8.99413L 14.9238 8.40588L 13.4648 10.7588L 13.123 11.3119C 12.4805 12.3529 11.998 13.1328 11.9883 13.1529L 11.9863 13.1575C 11.9824 13.1792 12.0586 13.2177 13.2227 13.8L 13.252 13.8145C 14.0234 14.2 14.4941 14.4353 14.5293 14.4353C 14.6035 14.453 14.6797 14.453 14.7539 14.4353C 14.8184 14.4098 14.8711 14.3589 14.9004 14.2941L 14.9004 14.2471Z"/>
</defs>
</svg>
