<?xml version="1.0" encoding="UTF-8"?>
<svg width="34px" height="34px" viewBox="0 0 34 34" version="1.1" xmlns="http://www.w3.org/2000/svg" xmlns:xlink="http://www.w3.org/1999/xlink">
    <!-- Generator: Sketch 53.1 (72631) - https://sketchapp.com -->
    <title>ico/social/twitter</title>
    <desc>Created with Sketch.</desc>
    <g id="ico/social/twitter" stroke="none" stroke-width="1" fill="none" fill-rule="evenodd">
        <g id="social_twitter" fill-rule="nonzero">
            <path d="M17,34 C26.3888407,34 34,26.3888407 34,17 C34,7.61115925 26.3888407,5.74900688e-16 17,0 C7.61115925,-5.74900688e-16 1.14980138e-15,7.61115925 0,17 C-1.14980138e-15,26.3888407 7.61115925,34 17,34" id="Shape" fill="#0779BF"></path>
            <path d="M25.54,12.55 C24.9053822,12.8345316 24.2308701,13.0200225 23.54,13.1 C24.2744819,12.6694074 24.8231903,11.9817404 25.08,11.17 C24.3930272,11.5760805 23.6425102,11.8634407 22.86,12.02 C21.8777988,10.9752702 20.3576985,10.6353359 19.0240519,11.1621815 C17.6904052,11.689027 16.8130261,12.9760647 16.81,14.41 C16.8091829,14.6759369 16.839387,14.9410615 16.9,15.2 C14.0901061,15.062741 11.4716389,13.7353237 9.7,11.55 C8.77561365,13.1484199 9.24769243,15.1897235 10.78,16.22 C10.2260346,16.1997895 9.68467369,16.0490308 9.2,15.78 L9.2,15.83 C9.20052877,17.4910696 10.3717181,18.9215938 12,19.25 C11.7016056,19.3393057 11.3914561,19.3831311 11.08,19.38 C10.8580881,19.3811491 10.6367339,19.3576721 10.42,19.31 C10.880304,20.7344266 12.1933434,21.7101715 13.69,21.74 C12.4531482,22.7137715 10.9241754,23.2422183 9.35,23.24 C9.07019864,23.2549155 8.78980136,23.2549155 8.51,23.24 C11.5724014,25.1980917 15.4588521,25.3304291 18.6473557,23.5851868 C21.8358592,21.8399445 23.8189431,18.4948899 23.82,14.86 C23.82,14.71 23.82,14.56 23.82,14.41 C24.5024974,13.9143392 25.0916294,13.3015065 25.56,12.6" id="Shape" fill="#FFFFFF"></path>
        </g>
    </g>
</svg>