<?xml version="1.0" encoding="UTF-8" standalone="no"?>
<svg width="30px" height="30px" viewBox="0 0 30 30" version="1.1" xmlns="http://www.w3.org/2000/svg" xmlns:xlink="http://www.w3.org/1999/xlink">
    <!-- Generator: Sketch 48.2 (47327) - http://www.bohemiancoding.com/sketch -->
    <title>twitter</title>
    <desc>Created with Sketch.</desc>
    <defs></defs>
    <g id="navigation/footer/no_newsletter" stroke="none" stroke-width="1" fill="none" fill-rule="evenodd" transform="translate(-1134.000000, -88.000000)">
        <g id="Footer" transform="translate(0.000000, -3.000000)">
            <g id="social" transform="translate(1095.000000, 59.000000)">
                <g id="ico/social/twitter" transform="translate(39.000000, 32.000000)">
                    <g id="social_twitter">
                        <path d="M15,30 C23.2842712,30 30,23.2842712 30,15 C30,6.71572875 23.2842712,5.07265313e-16 15,0 C6.71572875,-5.07265313e-16 1.01453063e-15,6.71572875 0,15 C-1.01453063e-15,23.2842712 6.71572875,30 15,30" id="Shape" fill="#79CCF0" fill-rule="nonzero"></path>
                        <path d="M22.5352941,11.0735294 C21.9753373,11.3245867 21.3801795,11.4882551 20.7705882,11.5588235 C21.4186605,11.1788889 21.902815,10.5721239 22.1294118,9.85588235 C21.5232593,10.2141887 20.8610384,10.4677418 20.1705882,10.6058824 C19.3039401,9.68406196 17.9626751,9.38411995 16.7859281,9.84898365 C15.6091811,10.3138473 14.835023,11.4494689 14.8323529,12.7147059 C14.831632,12.9493561 14.8582826,13.1832896 14.9117647,13.4117647 C12.4324465,13.2906538 10.1220344,12.1194032 8.55882353,10.1911765 C7.74318852,11.601547 8.15972861,13.4026972 9.51176471,14.3117647 C9.02297167,14.293932 8.54530032,14.1609095 8.11764706,13.9235294 L8.11764706,13.9676471 C8.11811362,15.4332967 9.15151599,16.6955239 10.5882353,16.9852941 C10.3249461,17.0640932 10.0512848,17.1027628 9.77647059,17.1 C9.580666,17.1010139 9.3853534,17.080299 9.19411765,17.0382353 C9.60026821,18.2950823 10.7588324,19.1560336 12.0794118,19.1823529 C10.9880719,20.0415631 9.63897833,20.5078397 8.25,20.5058824 C8.00311644,20.5190431 7.75570709,20.5190431 7.50882353,20.5058824 C10.2109425,22.2336103 13.6401636,22.3503786 16.4535491,20.8104589 C19.2669346,19.2705392 21.0167145,16.3190205 21.0176471,13.1117647 C21.0176471,12.9794118 21.0176471,12.8470588 21.0176471,12.7147059 C21.6198507,12.2773581 22.139673,11.7366234 22.5529412,11.1176471" id="Shape" fill="#FFFFFF" fill-rule="nonzero"></path>
                    </g>
                </g>
            </g>
        </g>
    </g>
</svg>