<?xml version="1.0" encoding="UTF-8" standalone="no"?>
<svg width="23px" height="30px" viewBox="0 0 23 30" version="1.1" xmlns="http://www.w3.org/2000/svg" xmlns:xlink="http://www.w3.org/1999/xlink">
    <!-- Generator: Sketch 48.2 (47327) - http://www.bohemiancoding.com/sketch -->
    <title>Page 1</title>
    <desc>Created with Sketch.</desc>
    <defs>
        <polygon id="path-1" points="0.000125 0.160833333 22.1041667 0.160833333 22.1041667 29.583323 0.000125 29.583323"></polygon>
    </defs>
    <g id="navigation/menu/320/desplegado" stroke="none" stroke-width="1" fill="none" fill-rule="evenodd" transform="translate(-133.000000, -1.000000)">
        <g id="Page-1" transform="translate(133.000000, 1.000000)">
            <g id="Group-3" transform="translate(0.000000, 0.255958)">
                <mask id="mask-2" fill="white">
                    <use xlink:href="#path-1"></use>
                </mask>
                <g id="Clip-2"></g>
                <path d="M20.152625,17.811 C19.616375,19.9089167 18.8155417,21.9043333 17.631375,23.7293333 C16.7484583,25.0893333 15.6980417,26.2935 14.2959583,27.1476667 C12.9430417,27.97225 11.4797083,28.2805833 9.91845833,27.9785 C8.65179167,27.7335 7.56720833,27.1089167 6.61054167,26.25475 C5.15595833,24.956 4.13470833,23.3493333 3.31470833,21.601 C2.40345833,19.6585 1.80679167,17.6193333 1.505125,15.4980833 C1.38845833,14.67475 1.34970833,13.8401667 1.31179167,13.4193333 C1.32720833,10.8518333 1.72679167,8.7835 2.73220833,6.86183333 C3.940125,4.5535 5.723875,2.86016667 8.243875,2.10433333 C11.231375,1.2085 14.057625,1.62725 16.5917917,3.50641667 C18.2805417,4.75891667 19.3697083,6.461 20.0559583,8.43225 C20.4880417,9.67308333 20.7030417,10.9530833 20.7709583,12.2643333 C20.8692917,14.1489167 20.616375,15.9951667 20.152625,17.811 M22.0805417,11.9701667 C22.0030417,10.5105833 21.7584583,9.08683333 21.268875,7.70558333 C20.490125,5.51183333 19.2542917,3.61808333 17.337625,2.22433333 C14.462625,0.133083333 11.255125,-0.333166667 7.86554167,0.663916667 C5.006375,1.50516667 2.98220833,3.38975 1.61179167,5.9585 C0.470958333,8.09683333 0.017625,10.3980833 0.000125,13.2551667 C0.042625,13.7235 0.0867916667,14.65225 0.219291667,15.5685 C0.560958333,17.9293333 1.23845833,20.1980833 2.272625,22.3601667 C3.20304167,24.3055833 4.36179167,26.0935 6.01220833,27.5389167 C7.09804167,28.4893333 8.328875,29.1843333 9.76554167,29.4568333 C11.5367917,29.7930833 13.1980417,29.4501667 14.7330417,28.5326667 C16.323875,27.58225 17.5159583,26.24225 18.517625,24.7285 C19.861375,22.6976667 20.7697083,20.47725 21.3780417,18.14225 C21.905125,16.1218333 22.191375,14.0676667 22.0805417,11.9701667" id="Fill-1" fill="#0779BF" mask="url(#mask-2)"></path>
            </g>
            <path d="M17.2514167,16.7612083 C16.7443333,17.527875 16.05975,18.0237083 15.09475,18.0232917 C14.0151667,18.022875 13.1205833,17.316625 12.8751667,16.2582917 C12.7385,15.6699583 12.7414167,15.0774583 12.9780833,14.515375 C13.2668333,13.8295417 13.85725,13.4787083 14.5230833,13.245375 C15.5443333,12.8874583 16.6064167,12.8582917 17.6739167,12.8824583 C17.8668333,12.886625 17.9468333,12.9732917 17.9539167,13.1562083 C17.9626667,13.3957917 17.9780833,13.6349583 17.9889167,13.837875 C17.9676667,14.895375 17.8280833,15.889125 17.2514167,16.7612083 M14.2993333,22.8637083 C14.44225,23.3170417 14.3039167,23.801625 13.8939167,24.0699583 C13.7051667,24.1932917 13.4518333,24.2657917 13.2243333,24.2745417 C12.52975,24.300375 11.8335,24.2837083 11.1376667,24.2837083 C10.4580833,24.2832917 9.7785,24.2845417 9.09933333,24.282875 C8.44891667,24.2812083 7.97225,23.8445417 7.95683333,23.2395417 C7.93975,22.5862083 8.37516667,22.095375 9.04016667,22.0874583 C10.4389167,22.0699583 11.8385,22.074125 13.2376667,22.0857917 C13.7726667,22.0899583 14.1489167,22.3874583 14.2993333,22.8637083 M7.52725,17.967875 C6.53183333,18.2020417 5.716,17.814125 5.08433333,17.050375 C4.44725,16.280375 4.2285,15.3495417 4.1585,14.3762083 C4.146,14.2012083 4.15641667,14.0245417 4.15641667,13.8482917 L4.16225,13.8482917 C4.16225,13.6482917 4.15683333,13.4482917 4.1635,13.2487083 C4.17391667,12.916625 4.20725,12.8707917 4.54641667,12.8832917 C5.24058333,12.9099583 5.9385,12.9207917 6.62558333,13.009125 C7.07016667,13.0662083 7.51975,13.2024583 7.93058333,13.3845417 C8.99558333,13.8549583 9.4235,14.6357917 9.32516667,15.8082917 C9.23225,16.912875 8.60016667,17.715375 7.52725,17.967875 M10.3535,18.7649583 C10.6093333,18.7099583 10.8735,18.6962083 11.1339167,18.6637083 C11.73725,18.6745417 12.2968333,18.7970417 12.7755833,19.1807917 C13.02475,19.3807917 13.1476667,19.6432917 13.076,19.9632917 C13.0105833,20.2537083 12.7655833,20.3524583 12.5139167,20.4207917 C12.3530833,20.4645417 12.186,20.5070417 12.0205833,20.510375 C11.4230833,20.5212083 10.82475,20.5262083 10.2276667,20.509125 C10.0243333,20.5032917 9.81683333,20.4445417 9.62308333,20.376625 C9.11433333,20.1982917 8.99058333,19.731625 9.34141667,19.316625 C9.60433333,19.0049583 9.96558333,18.8482917 10.3535,18.7649583 M19.4589167,11.7099583 C19.4380833,11.4570417 19.32475,11.3557917 19.0868333,11.356625 C19.031,11.356625 18.9751667,11.3487083 18.9193333,11.3499583 C18.19975,11.3607917 17.4793333,11.3462083 16.7618333,11.390375 C15.6955833,11.456625 14.6518333,11.6562083 13.656,12.0620417 C12.0430833,12.719125 11.2585,13.8445417 11.2518333,15.4937083 C11.2514167,15.609125 11.1680833,15.8274583 11.151,15.8245417 C10.9464167,15.791625 11.03475,15.6174583 11.0293333,15.497875 C10.98975,14.6232917 10.81475,13.7999583 10.1901667,13.1324583 C9.491,12.3857917 8.60558333,11.961625 7.63308333,11.746625 C6.801,11.562875 5.94975,11.4395417 5.10058333,11.3649583 C4.43475,11.306625 3.75891667,11.3649583 3.08766667,11.367875 C2.89516667,11.3687083 2.83891667,11.4657917 2.816,11.6474583 C2.69225,12.6387083 2.71225,13.627875 2.85225,14.614125 C2.9935,15.6057917 3.26766667,16.5612083 3.816,17.4062083 C4.75516667,18.8557917 6.0185,19.7312083 7.83683333,19.5320417 C7.98766667,19.515375 8.00933333,19.5849583 8.02308333,19.706625 C8.04808333,19.936625 8.06308333,20.1724583 8.1285,20.391625 C8.19766667,20.6232917 8.14975,20.7212083 7.9185,20.8174583 C6.75183333,21.302875 6.09391667,22.519125 6.40558333,23.8249583 C6.68225,24.9837083 7.59516667,25.7470417 8.78808333,25.8120417 C9.53808333,25.852875 10.29225,25.8195417 11.0443333,25.8195417 L11.0443333,25.8382917 C11.76475,25.8382917 12.4855833,25.846625 13.2055833,25.836625 C14.6655833,25.815375 15.7801667,24.8512083 15.91975,23.4995417 C16.04225,22.3137083 15.3964167,21.235375 14.2851667,20.782875 C14.1335,20.7207917 14.04725,20.677875 14.1139167,20.4757917 C14.1905833,20.2437083 14.2126667,19.9907917 14.23725,19.745375 C14.2518333,19.5962083 14.2601667,19.509125 14.4564167,19.5374583 C14.9605833,19.6095417 15.4618333,19.5724583 15.951,19.421625 C17.0439167,19.084125 17.8564167,18.3849583 18.43725,17.4220417 C19.5039167,15.6524583 19.6226667,13.7057917 19.4589167,11.7099583" id="Fill-4" fill="#0779BF"></path>
        </g>
    </g>
</svg>