<svg width="6" height="12" viewBox="0 0 6 12" version="1.1" xmlns="http://www.w3.org/2000/svg" xmlns:xlink="http://www.w3.org/1999/xlink">
<title>red</title>
<desc>Created using Figma</desc>
<g id="Canvas" transform="translate(-9095 -1288)">
<rect x="9095" y="1288" width="6" height="12" fill="#FFFFFF"/>
<clipPath id="clip-0" clip-rule="evenodd">
<path d="M 8383 -233L 9663 -233L 9663 3886L 8383 3886L 8383 -233Z" fill="#FFFFFF"/>
</clipPath>
<g id="1280_01_Homesite_01Home" clip-path="url(#clip-0)">
<path d="M 8383 -233L 9663 -233L 9663 3886L 8383 3886L 8383 -233Z" fill="#F9F9FB"/>
<g id="speakers">
<g id="mod/speaker/1140/hover">
<g id="mod/speaker_red">
<g id="speaker_red">
<g id="img">
<g id="Mask">
<use xlink:href="#path0_fill" transform="translate(9023 1078)" fill="#E73F31"/>
</g>
<mask id="mask0_outline" mask-type="alpha">
<g id="Mask">
<use xlink:href="#path0_fill" transform="translate(9023 1078)" fill="#FFFFFF"/>
</g>
</mask>
<g id="img" mask="url(#mask0_outline)">
<use xlink:href="#path1_fill" fill="url(#pattern0)" transform="translate(8974 1072)"/>
</g>
</g>
<g id="info">
<g id="Rectangle 2">
<use xlink:href="#path0_fill" transform="translate(9023 1078)" fill="#0779BF"/>
</g>
</g>
</g>
</g>
<g id="btn/enlace/blue">
<g id="ico/arrow/red">
<g id="Line">
<use xlink:href="#path2_stroke" transform="matrix(-1 0 0 1 9100.28 1289)" fill="#FFFFFF"/>
</g>
<g id="Line Copy">
<use xlink:href="#path2_stroke" transform="matrix(-1 0 -0 -1 9100.28 1299)" fill="#FFFFFF"/>
</g>
</g>
</g>
</g>
</g>
</g>
</g>
<defs>
<pattern id="pattern0" patternUnits="objectBoundingBox" patternContentUnits="objectBoundingBox" width="1" height="1">
<use xlink:href="#image0" transform="matrix(0.000753012 0 0 0.00100301 0 0)"/>
</pattern>
<path id="path0_fill" fill-rule="evenodd" d="M 0 0L 320 0L 320 240L 0 240L 0 0Z"/>
<path id="path1_fill" d="M 0 0L 541 0L 541 406L 0 406L 0 0Z"/>
<path id="path2_stroke" d="M 4.63217 0.383488L 4.95752 0.00381979L 4.19818 -0.646878L 3.87283 -0.267209L 4.63217 0.383488ZM -0.312169 4.61651L -0.637517 4.99618L 0.12182 5.64688L 0.447168 5.26721L -0.312169 4.61651ZM 3.87283 -0.267209L -0.312169 4.61651L 0.447168 5.26721L 4.63217 0.383488L 3.87283 -0.267209Z"/>

</defs>
</svg>
