<?xml version="1.0" encoding="UTF-8" standalone="no"?>
<svg width="92px" height="38px" viewBox="0 0 92 38" version="1.1" xmlns="http://www.w3.org/2000/svg" xmlns:xlink="http://www.w3.org/1999/xlink">
    <!-- Generator: Sketch 48.2 (47327) - http://www.bohemiancoding.com/sketch -->
    <title>logo/white</title>
    <desc>Created with Sketch.</desc>
    <defs>
        <polygon id="path-1" points="0 0.0997661565 27.715821 0.0997661565 27.715821 37.2810374 0 37.2810374"></polygon>
        <polygon id="path-3" points="0 37.7065663 91.2698125 37.7065663 91.2698125 0.525295068 0 0.525295068"></polygon>
    </defs>
    <g id="1600_01_Homesite_01Home" stroke="none" stroke-width="1" fill="none" fill-rule="evenodd" transform="translate(-26.000000, -17.000000)">
        <g id="header" transform="translate(-6.000000, -2.000000)">
            <g id="navigation/menu/1140/white" transform="translate(32.000000, 8.000000)">
                <g id="logo/white" transform="translate(0.000000, 11.000000)">
                    <g id="Page-1">
                        <path d="M0.60296875,17.1618267 C0.62421875,13.7083425 1.1676875,10.926442 2.5361875,8.34144834 C4.17934375,5.23662054 6.60715625,2.95880166 10.036375,1.94223703 C14.1020312,0.737166879 17.9482812,1.30058312 21.396625,3.82834247 C23.6948125,5.51281526 25.177,7.80218601 26.1109375,10.4538654 C26.6990312,12.1231108 26.99175,13.8443395 27.0847188,15.6086252 C27.2175312,18.1432107 26.8743437,20.6263378 26.2426875,23.0690334 C25.51275,25.8908403 24.4231563,28.57455 22.8113437,31.0293225 C21.6101875,32.8592438 20.1805937,34.4786061 18.272875,35.6274921 C16.4310313,36.7364717 14.439375,37.1512889 12.3149062,36.7448731 C10.5920625,36.4151197 9.1151875,35.5755087 7.813625,34.4266227 C5.83365625,32.6796648 4.4444375,30.5184148 3.32828125,28.167084 C2.08834375,25.5537358 1.2760625,22.8112166 0.8659375,19.9579045 C0.70709375,18.8499751 0.6545,17.7278684 0.60296875,17.1618267" id="Fill-1" fill="#FFFFFF"></path>
                        <g id="Group-5" transform="translate(0.000000, 0.425529)">
                            <mask id="mask-2" fill="white">
                                <use xlink:href="#path-1"></use>
                            </mask>
                            <g id="Clip-4"></g>
                            <path d="M13.8474031,33.1954558 L13.8474031,33.2206599 C14.8360594,33.2206599 15.8252469,33.2322117 16.8133719,33.2180344 C18.8177781,33.1896798 20.3472469,31.8811679 20.5390281,30.047571 C20.7074344,28.4392355 19.8207781,26.9763486 18.2955594,26.3619991 C18.0873094,26.2785106 17.9688406,26.2197011 18.0607469,25.9450816 C18.1659344,25.6305557 18.1967469,25.2876752 18.2296844,24.9542462 C18.2498719,24.7520884 18.2615594,24.6339443 18.5309031,24.6722755 C19.2225906,24.7704664 19.9105594,24.7195332 20.5820594,24.5152751 C22.0823094,24.057926 23.1979344,23.1090974 23.9948094,21.8026858 C25.4589344,19.401997 25.6220281,16.7608193 25.3973094,14.0529558 C25.3686219,13.7100753 25.2124344,13.572503 24.8867781,13.5735531 C24.8102781,13.5740782 24.7332469,13.5630514 24.6567469,13.5646267 C23.6691531,13.5793291 22.6799656,13.5599009 21.6950281,13.6197606 C20.2319656,13.7090251 18.7991844,13.980494 17.4322781,14.5307832 C15.2180281,15.4218525 14.1417156,16.9487997 14.1321531,19.1867122 C14.1310906,19.3431875 14.0174031,19.6393355 13.9940281,19.6351348 C13.7129969,19.5910276 13.8346531,19.3547394 13.8266844,19.191963 C13.7724969,18.0052708 13.5323719,16.8889401 12.6744031,15.9831684 C11.7154969,14.9702793 10.4999969,14.3947861 9.16496563,14.1033639 C8.02277813,13.8534235 6.85455938,13.6864464 5.68899687,13.585105 C4.77524687,13.5058172 3.84768438,13.585105 2.92596563,13.5893057 C2.66193437,13.5903559 2.58437187,13.7216271 2.55355937,13.9684171 C2.38302812,15.3131599 2.41118437,16.6552772 2.60349688,17.9931939 C2.79687187,19.3379366 3.17352813,20.6343716 3.92577812,21.7811573 C5.21459063,23.7476008 6.94859063,24.9353431 9.44493438,24.6649243 C9.65212188,24.6428707 9.68187188,24.736861 9.70046563,24.9017377 C9.73499688,25.2136382 9.75571563,25.5339401 9.84549688,25.8316633 C9.94059063,26.1456641 9.87471563,26.2785106 9.55649688,26.4092568 C7.95584063,27.0677134 7.05165313,28.7180557 7.47984063,30.4891675 C7.85968438,32.0612721 9.11290313,33.0967398 10.7502156,33.1849541 C11.7797781,33.2406131 12.8151844,33.1954558 13.8474031,33.1954558 M-0.000159375,16.6474009 C0.022153125,13.0369162 0.590590625,10.1279452 2.02071562,7.42585757 C3.73930937,4.17978189 6.27709062,1.79852126 9.86249687,0.73574915 C14.1130281,-0.524454932 18.1345906,0.0646904762 21.7396531,2.70744345 C24.1419656,4.46857866 25.6921531,6.86191624 26.6680594,9.63384014 C27.2832469,11.3792228 27.5892469,13.1792143 27.6859344,15.0233129 C27.8256531,17.6734171 27.4659969,20.2694375 26.8056531,22.8234511 C26.0427781,25.7733788 24.9037781,28.5794332 23.2186531,31.1455238 C21.9627781,33.0589337 20.4683719,34.7518078 18.4735281,35.9532024 C16.5482781,37.1125901 14.4663094,37.5463104 12.2446219,37.1215166 C10.4431531,36.7765357 8.89987188,35.8985935 7.53880937,34.697199 C5.46905937,32.8709532 4.01609062,30.6115123 2.84946562,28.1530642 C1.55321562,25.4210468 0.703746875,22.5535574 0.275028125,19.5705493 C0.108746875,18.4127368 0.053496875,17.2391718 -0.000159375,16.6474009" id="Fill-3" fill="#0779BF" mask="url(#mask-2)"></path>
                        </g>
                        <path d="M23.3793031,17.3659273 C23.3500844,18.7999345 23.1583031,20.1483529 22.3667406,21.3313695 C21.6713344,22.3715629 20.7315531,23.0447219 19.4071469,23.0436718 C17.9254906,23.0436718 16.6972406,22.0853916 16.3604281,20.649284 C16.1728969,19.8511548 16.1766156,19.0472496 16.5017406,18.2848261 C16.8985844,17.3543754 17.7082094,16.8781233 18.6224906,16.561497 C20.0239281,16.0757934 21.4816781,16.0369371 22.9468656,16.0694923 C23.2114281,16.0752683 23.3219281,16.1923622 23.3314906,16.4407275 C23.3437094,16.7657551 23.3644281,17.0902577 23.3793031,17.3659273" id="Fill-6" fill="#0779BF"></path>
                        <path d="M4.400875,17.379737 C4.400875,17.1087932 4.39396875,16.8373242 4.40246875,16.5663803 C4.41734375,16.1153323 4.46303125,16.0533722 4.92840625,16.0707 C5.8809375,16.1069309 6.8393125,16.1216333 7.78228125,16.2413527 C8.3926875,16.3185402 9.0089375,16.5038952 9.57365625,16.7506852 C11.035125,17.3886635 11.6226875,18.4482851 11.48775,20.0387676 C11.36025,21.5373603 10.4927188,22.6263867 9.02009375,22.9687421 C7.65425,23.2869437 6.53384375,22.7602834 5.6663125,21.7237655 C4.791875,20.6788463 4.49225,19.4165419 4.39609375,18.095953 C4.3785625,17.8586146 4.3934375,17.6186507 4.3934375,17.379737 L4.400875,17.379737 Z" id="Fill-8" fill="#0779BF"></path>
                        <path d="M13.9758062,31.5368172 C13.0429312,31.5368172 12.1100562,31.5383924 11.1771812,31.5362921 C10.2852125,31.5341918 9.63124375,30.9413707 9.6094625,30.1206628 C9.5860875,29.2343193 10.1837437,28.5685115 11.0964312,28.5574847 C13.0163687,28.5338559 14.9379,28.5396318 16.8578375,28.5548593 C17.5925563,28.5611603 18.1084,28.9644256 18.3150563,29.6108053 C18.5116188,30.2256798 18.3214313,30.8830863 17.7588375,31.2469702 C17.4995875,31.4144724 17.15215,31.5131884 16.839775,31.5247402 C15.8861812,31.5593958 14.9304625,31.5373423 13.9758062,31.5368172" id="Fill-10" fill="#0779BF"></path>
                        <path d="M13.9708656,23.9127925 C14.7980219,23.9274949 15.5667406,24.0934218 16.2233656,24.613781 C16.5660219,24.8857751 16.7344281,25.2412577 16.6361469,25.675503 C16.5468969,26.0693168 16.2106156,26.2037385 15.8642406,26.2966786 C15.6437719,26.3554881 15.4142719,26.4137725 15.1879594,26.4179732 C14.3671781,26.4326756 13.5458656,26.4395017 12.7261469,26.416398 C12.4477719,26.4085217 12.1624906,26.3287088 11.8968656,26.2362938 C11.1977406,25.9942296 11.0282719,25.3615021 11.5095844,24.798611 C11.8713656,24.3753924 12.3664906,24.162733 12.8993344,24.0498397 C13.2504906,23.9758027 13.6133344,23.9563746 13.9708656,23.9127925" id="Fill-12" fill="#0779BF"></path>
                        <polygon id="Fill-14" fill="#FFFFFF" points="33.4341125 4.57543346 38.0628938 4.57543346 38.0628938 6.63166645 35.458175 6.63166645 35.458175 10.2059203 37.3318937 10.2059203 37.3318937 12.3918493 35.458175 12.3918493 35.458175 16.1330801 38.0628938 16.1330801 38.0628938 18.1893131 33.4341125 18.1893131"></polygon>
                        <polygon id="Fill-16" fill="#FFFFFF" points="40.9608625 18.1891556 38.9739875 18.1891556 41.204175 11.0395978 39.0117062 4.57527594 40.99805 4.57527594 42.1041125 8.02035884 42.160425 8.18733588 42.2353313 8.18733588 42.2911125 8.02035884 43.3966437 4.57527594 45.3835188 4.57527594 43.1905188 11.0395978 45.4212375 18.1891556 43.4343625 18.1891556 42.2725187 14.1328737 42.2353313 13.9664218 42.160425 13.9664218 42.1227063 14.1328737"></polygon>
                        <path d="M48.3812562,10.7062213 C48.9996312,10.7062213 49.3932875,10.5949033 49.6185375,10.2798523 C49.842725,9.98422938 49.8990375,9.48382334 49.8990375,8.72455038 C49.8990375,7.96475234 49.842725,7.42759035 49.6185375,7.09416135 C49.3932875,6.76125744 48.9996312,6.61265838 48.3812562,6.61265838 L48.3812562,10.7062213 Z M46.3571937,4.57532844 L48.3812562,4.57532844 C49.2620687,4.57532844 50.1428812,4.79743941 50.8175687,5.42754145 C51.491725,6.05711841 51.942225,7.09416135 51.942225,8.64998831 C51.942225,10.2058153 51.491725,11.2250053 50.8175687,11.8545823 C50.1428812,12.4846843 49.2620687,12.7435512 48.3812562,12.7435512 L48.3812562,18.1892081 L46.3571937,18.1892081 L46.3571937,4.57532844 Z" id="Fill-18" fill="#FFFFFF"></path>
                        <polygon id="Fill-20" fill="#FFFFFF" points="52.8177781 4.57543346 57.4465594 4.57543346 57.4465594 6.63166645 54.8418406 6.63166645 54.8418406 10.2059203 56.7160906 10.2059203 56.7160906 12.3918493 54.8418406 12.3918493 54.8418406 16.1330801 57.4465594 16.1330801 57.4465594 18.1893131 52.8177781 18.1893131"></polygon>
                        <path d="M60.4070031,10.5949033 C60.6880344,10.5949033 61.0625656,10.5581473 61.3627219,10.2987553 C61.6623469,10.0393633 61.9061906,9.53895727 61.9061906,8.57595132 C61.9061906,7.61294537 61.6623469,7.09416135 61.3627219,6.83476935 C61.0625656,6.57537734 60.6880344,6.55752445 60.4070031,6.55752445 L60.4070031,10.5949033 Z M62.0002219,18.1892081 L60.9499406,12.4474033 L60.4070031,12.4474033 L60.4070031,18.1892081 L58.3829406,18.1892081 L58.3829406,4.57532844 L60.4070031,4.57532844 C62.8241906,4.57532844 63.8553469,5.92742241 63.8553469,8.50191433 C63.8553469,9.85400829 63.4988781,11.0764063 62.7306906,11.5951903 L64.0237531,18.1892081 L62.0002219,18.1892081 Z" id="Fill-22" fill="#FFFFFF"></path>
                        <mask id="mask-4" fill="white">
                            <use xlink:href="#path-3"></use>
                        </mask>
                        <g id="Clip-25"></g>
                        <polygon id="Fill-24" fill="#FFFFFF" mask="url(#mask-4)" points="64.8858125 18.1891556 66.909875 18.1891556 66.909875 4.57527594 64.8858125 4.57527594"></polygon>
                        <polygon id="Fill-26" fill="#FFFFFF" mask="url(#mask-4)" points="67.9028875 4.57543346 72.5316688 4.57543346 72.5316688 6.63166645 69.92695 6.63166645 69.92695 10.2059203 71.8006687 10.2059203 71.8006687 12.3918493 69.92695 12.3918493 69.92695 16.1330801 72.5316688 16.1330801 72.5316688 18.1893131 67.9028875 18.1893131"></polygon>
                        <polygon id="Fill-27" fill="#FFFFFF" mask="url(#mask-4)" points="75.6044188 11.0951518 75.4354812 10.4650497 75.3233875 10.4650497 75.3233875 18.1890506 73.4682625 18.1890506 73.4682625 4.57517092 75.267075 4.57517092 77.234825 11.6695948 77.4037625 12.2986467 77.5158563 12.2986467 77.5158563 4.57517092 79.3709813 4.57517092 79.3709813 18.1890506 77.5721688 18.1890506"></polygon>
                        <path d="M85.7044375,13.5216222 L85.7044375,15.3925002 C85.6853125,15.9480402 85.5732187,16.4479211 85.3670937,16.8742902 C85.1986875,17.2444751 84.9357187,17.5968072 84.5611875,17.8745772 C84.1866562,18.1707251 83.680375,18.3377022 83.0056875,18.3377022 C82.3315312,18.3377022 81.8066562,18.1707251 81.4315937,17.8745772 C81.0570625,17.5968072 80.8132187,17.2444751 80.6448125,16.8742902 C80.4386875,16.4479211 80.3260625,15.9480402 80.3074687,15.3925002 L80.3074687,7.3723514 C80.3260625,6.83466433 80.4386875,6.33478338 80.6448125,5.90841433 C80.8132187,5.53822938 81.0570625,5.16804443 81.4315937,4.89027445 C81.8066562,4.61197938 82.3315312,4.42714945 83.0056875,4.42714945 C83.680375,4.42714945 84.1866562,4.61197938 84.5611875,4.89027445 C84.9357187,5.16804443 85.1986875,5.53822938 85.3670937,5.90841433 C85.5732187,6.33478338 85.6853125,6.83466433 85.7044375,7.3723514 L85.7044375,9.24322938 L83.8115937,9.24322938 L83.8115937,7.3723514 C83.8115937,7.00164137 83.7180937,6.74224936 83.5119687,6.52013839 C83.4179375,6.42772343 83.2495312,6.37153933 83.0434062,6.37153933 C82.6869375,6.37153933 82.5185312,6.63145642 82.4250312,6.87194537 C82.3687187,7.02054443 82.350125,7.18699639 82.3315312,7.3723514 L82.3315312,15.3925002 C82.350125,15.7815882 82.4622187,16.0409802 82.64975,16.2447132 C82.74325,16.3371282 82.8744687,16.3922621 83.0434062,16.3922621 C83.47425,16.3922621 83.6431875,16.1701511 83.7366875,15.8923812 C83.793,15.7632102 83.8115937,15.5962332 83.8115937,15.3925002 L83.8115937,13.5216222 L85.7044375,13.5216222 Z" id="Fill-28" fill="#FFFFFF" mask="url(#mask-4)"></path>
                        <polygon id="Fill-29" fill="#FFFFFF" mask="url(#mask-4)" points="86.6406063 4.57543346 91.2693875 4.57543346 91.2693875 6.63166645 88.6646688 6.63166645 88.6646688 10.2059203 90.5383875 10.2059203 90.5383875 12.3918493 88.6646688 12.3918493 88.6646688 16.1330801 91.2693875 16.1330801 91.2693875 18.1893131 86.6406063 18.1893131"></polygon>
                        <polygon id="Fill-30" fill="#FFFFFF" mask="url(#mask-4)" points="38.0631063 22.0983612 35.4583875 22.0983612 35.4583875 25.6731401 37.3326375 25.6731401 37.3326375 27.7293731 35.4583875 27.7293731 35.4583875 33.656533 33.434325 33.656533 33.434325 20.0421282 38.0631063 20.0421282"></polygon>
                        <polygon id="Fill-31" fill="#FFFFFF" mask="url(#mask-4)" points="38.9990625 33.6560604 41.023125 33.6560604 41.023125 20.0421807 38.9990625 20.0421807"></polygon>
                        <path d="M45.3351219,24.9319301 L45.3351219,22.8389411 C45.3351219,22.4687562 45.2602156,22.2093642 45.0726844,21.9872532 C44.9791844,21.8948382 44.8293719,21.8386541 44.6604344,21.8386541 C44.3050281,21.8386541 44.1360906,22.0985712 44.0611844,22.3390602 C44.0048719,22.4871341 43.9857469,22.6541112 43.9857469,22.8389411 L43.9857469,31.026067 C43.9857469,31.415155 44.0797781,31.674547 44.2667781,31.87828 C44.3608094,31.9706949 44.4920281,32.026354 44.6604344,32.026354 C45.0169031,32.026354 45.1853094,31.8037179 45.2602156,31.5259479 C45.3165281,31.396777 45.3351219,31.2298 45.3351219,31.026067 L45.3351219,28.562368 L44.5292156,28.562368 L44.5292156,26.8773701 L47.3591844,26.8773701 L47.3591844,33.6562179 L46.1601531,33.6562179 L45.9163094,33.008263 C45.5412469,33.471388 44.9977781,33.8042919 44.3422156,33.8042919 C43.6861219,33.8042919 43.2366844,33.6378399 42.8993406,33.341692 C42.5619969,33.0633969 42.3367469,32.7115899 42.1869344,32.341405 C42.0185281,31.9150359 41.9430906,31.415155 41.9622156,30.8590899 L41.9622156,22.8389411 C41.9808094,22.3017791 42.0934344,21.8018982 42.2995594,21.3760542 C42.4679656,21.0053442 42.7118094,20.6351592 43.0863406,20.3573892 C43.4614031,20.0790942 43.9857469,19.8942642 44.6604344,19.8942642 C45.3351219,19.8942642 45.8414031,20.0790942 46.2159344,20.3573892 C46.5904656,20.6351592 46.8529031,21.0053442 47.0218406,21.3760542 C47.2279656,21.8018982 47.3405906,22.3017791 47.3591844,22.8389411 L47.3591844,24.9319301 L45.3351219,24.9319301 Z" id="Fill-32" fill="#FFFFFF" mask="url(#mask-4)"></path>
                        <polygon id="Fill-33" fill="#FFFFFF" mask="url(#mask-4)" points="51.8935094 27.7291631 50.3194156 27.7291631 50.3194156 33.6563229 48.2953531 33.6563229 48.2953531 20.0424432 50.3194156 20.0424432 50.3194156 25.6729301 51.8935094 25.6729301 51.8935094 20.0424432 53.9175719 20.0424432 53.9175719 33.6563229 51.8935094 33.6563229"></polygon>
                        <polygon id="Fill-34" fill="#FFFFFF" mask="url(#mask-4)" points="54.8480562 22.0983612 54.8480562 20.0421282 60.6949937 20.0421282 60.6949937 22.0983612 58.7835562 22.0983612 58.7835562 33.656533 56.7594937 33.656533 56.7594937 22.0983612"></polygon>
                        <polygon id="Fill-35" fill="#FFFFFF" mask="url(#mask-4)" points="61.631375 20.0423382 66.259625 20.0423382 66.259625 22.0985712 63.6549063 22.0985712 63.6549063 25.672825 65.5291563 25.672825 65.5291563 27.858754 63.6549063 27.858754 63.6549063 31.60051 66.259625 31.60051 66.259625 33.6562179 61.631375 33.6562179"></polygon>
                        <path d="M69.2198562,26.0618605 C69.5008875,26.0618605 69.87595,26.0251046 70.175575,25.7657126 C70.4757312,25.5063206 70.7190437,25.0064396 70.7190437,24.0429086 C70.7190437,23.0799026 70.4757312,22.5611186 70.175575,22.3017266 C69.87595,22.0423346 69.5008875,22.0244817 69.2198562,22.0244817 L69.2198562,26.0618605 Z M70.813075,33.6561654 L69.763325,27.9143605 L69.2198562,27.9143605 L69.2198562,33.6561654 L67.196325,33.6561654 L67.196325,20.0422857 L69.2198562,20.0422857 C71.637575,20.0422857 72.6682,21.3943797 72.6682,23.9688716 C72.6682,25.3214906 72.3122625,26.5433635 71.5435437,27.0621475 L72.8366062,33.6561654 L70.813075,33.6561654 Z" id="Fill-36" fill="#FFFFFF" mask="url(#mask-4)"></path>
                        <path d="M77.0521281,23.6910491 C77.0521281,23.2468272 77.0335344,22.7469462 76.9023156,22.3578582 C76.7716281,21.9871482 76.5649719,21.7277562 76.2462219,21.7277562 C75.7218781,21.7461341 75.5529406,22.2838212 75.5529406,23.0798501 C75.5529406,23.5429751 75.7590656,24.0244781 76.0586906,24.5432621 C76.3588469,25.061521 76.7525031,25.598683 77.1461594,26.1736511 C77.6147219,26.858362 78.0827531,27.5625011 78.4392219,28.247737 C78.7951594,28.932973 79.0390031,29.637112 79.0390031,30.378007 C79.0390031,31.285354 78.8891906,32.137567 78.4578156,32.767669 C78.0269719,33.397246 77.3331594,33.8047119 76.2276281,33.8047119 C74.9345656,33.8047119 74.2035656,33.3226839 73.7913156,32.5817889 C73.3795969,31.841419 73.2855656,30.8589849 73.2855656,29.840845 L75.2719094,29.65549 C75.2719094,30.229933 75.2910344,30.803851 75.4408469,31.2296949 C75.5720656,31.674442 75.7967844,31.971115 76.2276281,31.971115 C76.8274094,31.971115 77.0521281,31.341013 77.0521281,30.470422 C77.0521281,30.025675 76.8274094,29.507416 76.5272531,28.970254 C76.3588469,28.710862 76.1899094,28.433092 76.0029094,28.1553221 C75.6092531,27.599257 75.1784094,26.9702051 74.7284406,26.2844441 C74.2790031,25.598683 73.9416594,24.8950691 73.7350031,24.1725521 C73.6229094,23.8207451 73.5665969,23.4505602 73.5665969,23.0798501 C73.5665969,22.3389551 73.7350031,21.5429262 74.1663781,20.9312022 C74.5972219,20.3383812 75.2533156,19.9125372 76.2090344,19.8941592 C77.4271906,19.8752562 78.1390656,20.3761873 78.5327219,21.0981792 C78.9263781,21.8390742 79.0390031,22.7469462 79.0390031,23.5056941 L77.0521281,23.6910491 Z" id="Fill-37" fill="#FFFFFF" mask="url(#mask-4)"></path>
                    </g>
                </g>
            </g>
        </g>
    </g>
</svg>